<?xml version="1.0" encoding="utf-8" standalone="no"?>
<!DOCTYPE svg PUBLIC "-//W3C//DTD SVG 1.1//EN"
  "http://www.w3.org/Graphics/SVG/1.1/DTD/svg11.dtd">
<svg xmlns:xlink="http://www.w3.org/1999/xlink" width="504pt" height="360pt" viewBox="0 0 504 360" xmlns="http://www.w3.org/2000/svg" version="1.1">
 <metadata>
  <rdf:RDF xmlns:dc="http://purl.org/dc/elements/1.1/" xmlns:cc="http://creativecommons.org/ns#" xmlns:rdf="http://www.w3.org/1999/02/22-rdf-syntax-ns#">
   <cc:Work>
    <dc:type rdf:resource="http://purl.org/dc/dcmitype/StillImage"/>
    <dc:date>2024-10-08T15:08:26.740213</dc:date>
    <dc:format>image/svg+xml</dc:format>
    <dc:creator>
     <cc:Agent>
      <dc:title>Matplotlib v3.5.1, https://matplotlib.org/</dc:title>
     </cc:Agent>
    </dc:creator>
   </cc:Work>
  </rdf:RDF>
 </metadata>
 <defs>
  <style type="text/css">*{stroke-linejoin: round; stroke-linecap: butt}</style>
 </defs>
 <g id="figure_1">
  <g id="patch_1">
   <path d="M 0 360 
L 504 360 
L 504 0 
L 0 0 
L 0 360 
z
" style="fill: none"/>
  </g>
  <g id="axes_1">
   <g id="patch_2">
    <path d="M 74.925 305.121875 
L 437.7 305.121875 
L 437.7 51.6 
L 74.925 51.6 
z
" style="fill: #ffffff"/>
   </g>
   <g id="matplotlib.axis_1">
    <g id="xtick_1">
     <g id="line2d_1">
      <defs>
       <path id="m55d74466ca" d="M 0 0 
L 0 3.5 
" style="stroke: #000000; stroke-width: 0.8"/>
      </defs>
      <g>
       <use xlink:href="#m55d74466ca" x="91.249793" y="305.121875" style="stroke: #000000; stroke-width: 0.8"/>
      </g>
     </g>
     <g id="text_1">
      <!-- 0.0 -->
      <g transform="translate(80.117605 322.759687)scale(0.14 -0.14)">
       <defs>
        <path id="DejaVuSans-30" d="M 2034 4250 
Q 1547 4250 1301 3770 
Q 1056 3291 1056 2328 
Q 1056 1369 1301 889 
Q 1547 409 2034 409 
Q 2525 409 2770 889 
Q 3016 1369 3016 2328 
Q 3016 3291 2770 3770 
Q 2525 4250 2034 4250 
z
M 2034 4750 
Q 2819 4750 3233 4129 
Q 3647 3509 3647 2328 
Q 3647 1150 3233 529 
Q 2819 -91 2034 -91 
Q 1250 -91 836 529 
Q 422 1150 422 2328 
Q 422 3509 836 4129 
Q 1250 4750 2034 4750 
z
" transform="scale(0.015625)"/>
        <path id="DejaVuSans-2e" d="M 684 794 
L 1344 794 
L 1344 0 
L 684 0 
L 684 794 
z
" transform="scale(0.015625)"/>
       </defs>
       <use xlink:href="#DejaVuSans-30"/>
       <use xlink:href="#DejaVuSans-2e" x="63.623047"/>
       <use xlink:href="#DejaVuSans-30" x="95.410156"/>
      </g>
     </g>
    </g>
    <g id="xtick_2">
     <g id="line2d_2">
      <g>
       <use xlink:href="#m55d74466ca" x="173.739901" y="305.121875" style="stroke: #000000; stroke-width: 0.8"/>
      </g>
     </g>
     <g id="text_2">
      <!-- 0.5 -->
      <g transform="translate(162.607714 322.759687)scale(0.14 -0.14)">
       <defs>
        <path id="DejaVuSans-35" d="M 691 4666 
L 3169 4666 
L 3169 4134 
L 1269 4134 
L 1269 2991 
Q 1406 3038 1543 3061 
Q 1681 3084 1819 3084 
Q 2600 3084 3056 2656 
Q 3513 2228 3513 1497 
Q 3513 744 3044 326 
Q 2575 -91 1722 -91 
Q 1428 -91 1123 -41 
Q 819 9 494 109 
L 494 744 
Q 775 591 1075 516 
Q 1375 441 1709 441 
Q 2250 441 2565 725 
Q 2881 1009 2881 1497 
Q 2881 1984 2565 2268 
Q 2250 2553 1709 2553 
Q 1456 2553 1204 2497 
Q 953 2441 691 2322 
L 691 4666 
z
" transform="scale(0.015625)"/>
       </defs>
       <use xlink:href="#DejaVuSans-30"/>
       <use xlink:href="#DejaVuSans-2e" x="63.623047"/>
       <use xlink:href="#DejaVuSans-35" x="95.410156"/>
      </g>
     </g>
    </g>
    <g id="xtick_3">
     <g id="line2d_3">
      <g>
       <use xlink:href="#m55d74466ca" x="256.23001" y="305.121875" style="stroke: #000000; stroke-width: 0.8"/>
      </g>
     </g>
     <g id="text_3">
      <!-- 1.0 -->
      <g transform="translate(245.097822 322.759687)scale(0.14 -0.14)">
       <defs>
        <path id="DejaVuSans-31" d="M 794 531 
L 1825 531 
L 1825 4091 
L 703 3866 
L 703 4441 
L 1819 4666 
L 2450 4666 
L 2450 531 
L 3481 531 
L 3481 0 
L 794 0 
L 794 531 
z
" transform="scale(0.015625)"/>
       </defs>
       <use xlink:href="#DejaVuSans-31"/>
       <use xlink:href="#DejaVuSans-2e" x="63.623047"/>
       <use xlink:href="#DejaVuSans-30" x="95.410156"/>
      </g>
     </g>
    </g>
    <g id="xtick_4">
     <g id="line2d_4">
      <g>
       <use xlink:href="#m55d74466ca" x="338.720119" y="305.121875" style="stroke: #000000; stroke-width: 0.8"/>
      </g>
     </g>
     <g id="text_4">
      <!-- 1.5 -->
      <g transform="translate(327.587931 322.759687)scale(0.14 -0.14)">
       <use xlink:href="#DejaVuSans-31"/>
       <use xlink:href="#DejaVuSans-2e" x="63.623047"/>
       <use xlink:href="#DejaVuSans-35" x="95.410156"/>
      </g>
     </g>
    </g>
    <g id="xtick_5">
     <g id="line2d_5">
      <g>
       <use xlink:href="#m55d74466ca" x="421.210227" y="305.121875" style="stroke: #000000; stroke-width: 0.8"/>
      </g>
     </g>
     <g id="text_5">
      <!-- 2.0 -->
      <g transform="translate(410.07804 322.759687)scale(0.14 -0.14)">
       <defs>
        <path id="DejaVuSans-32" d="M 1228 531 
L 3431 531 
L 3431 0 
L 469 0 
L 469 531 
Q 828 903 1448 1529 
Q 2069 2156 2228 2338 
Q 2531 2678 2651 2914 
Q 2772 3150 2772 3378 
Q 2772 3750 2511 3984 
Q 2250 4219 1831 4219 
Q 1534 4219 1204 4116 
Q 875 4013 500 3803 
L 500 4441 
Q 881 4594 1212 4672 
Q 1544 4750 1819 4750 
Q 2544 4750 2975 4387 
Q 3406 4025 3406 3419 
Q 3406 3131 3298 2873 
Q 3191 2616 2906 2266 
Q 2828 2175 2409 1742 
Q 1991 1309 1228 531 
z
" transform="scale(0.015625)"/>
       </defs>
       <use xlink:href="#DejaVuSans-32"/>
       <use xlink:href="#DejaVuSans-2e" x="63.623047"/>
       <use xlink:href="#DejaVuSans-30" x="95.410156"/>
      </g>
     </g>
    </g>
    <g id="text_6">
     <!-- RMSD (Å) -->
     <g transform="translate(213.610312 345.010625)scale(0.18 -0.18)">
      <defs>
       <path id="DejaVuSans-52" d="M 2841 2188 
Q 3044 2119 3236 1894 
Q 3428 1669 3622 1275 
L 4263 0 
L 3584 0 
L 2988 1197 
Q 2756 1666 2539 1819 
Q 2322 1972 1947 1972 
L 1259 1972 
L 1259 0 
L 628 0 
L 628 4666 
L 2053 4666 
Q 2853 4666 3247 4331 
Q 3641 3997 3641 3322 
Q 3641 2881 3436 2590 
Q 3231 2300 2841 2188 
z
M 1259 4147 
L 1259 2491 
L 2053 2491 
Q 2509 2491 2742 2702 
Q 2975 2913 2975 3322 
Q 2975 3731 2742 3939 
Q 2509 4147 2053 4147 
L 1259 4147 
z
" transform="scale(0.015625)"/>
       <path id="DejaVuSans-4d" d="M 628 4666 
L 1569 4666 
L 2759 1491 
L 3956 4666 
L 4897 4666 
L 4897 0 
L 4281 0 
L 4281 4097 
L 3078 897 
L 2444 897 
L 1241 4097 
L 1241 0 
L 628 0 
L 628 4666 
z
" transform="scale(0.015625)"/>
       <path id="DejaVuSans-53" d="M 3425 4513 
L 3425 3897 
Q 3066 4069 2747 4153 
Q 2428 4238 2131 4238 
Q 1616 4238 1336 4038 
Q 1056 3838 1056 3469 
Q 1056 3159 1242 3001 
Q 1428 2844 1947 2747 
L 2328 2669 
Q 3034 2534 3370 2195 
Q 3706 1856 3706 1288 
Q 3706 609 3251 259 
Q 2797 -91 1919 -91 
Q 1588 -91 1214 -16 
Q 841 59 441 206 
L 441 856 
Q 825 641 1194 531 
Q 1563 422 1919 422 
Q 2459 422 2753 634 
Q 3047 847 3047 1241 
Q 3047 1584 2836 1778 
Q 2625 1972 2144 2069 
L 1759 2144 
Q 1053 2284 737 2584 
Q 422 2884 422 3419 
Q 422 4038 858 4394 
Q 1294 4750 2059 4750 
Q 2388 4750 2728 4690 
Q 3069 4631 3425 4513 
z
" transform="scale(0.015625)"/>
       <path id="DejaVuSans-44" d="M 1259 4147 
L 1259 519 
L 2022 519 
Q 2988 519 3436 956 
Q 3884 1394 3884 2338 
Q 3884 3275 3436 3711 
Q 2988 4147 2022 4147 
L 1259 4147 
z
M 628 4666 
L 1925 4666 
Q 3281 4666 3915 4102 
Q 4550 3538 4550 2338 
Q 4550 1131 3912 565 
Q 3275 0 1925 0 
L 628 0 
L 628 4666 
z
" transform="scale(0.015625)"/>
       <path id="DejaVuSans-20" transform="scale(0.015625)"/>
       <path id="DejaVuSans-28" d="M 1984 4856 
Q 1566 4138 1362 3434 
Q 1159 2731 1159 2009 
Q 1159 1288 1364 580 
Q 1569 -128 1984 -844 
L 1484 -844 
Q 1016 -109 783 600 
Q 550 1309 550 2009 
Q 550 2706 781 3412 
Q 1013 4119 1484 4856 
L 1984 4856 
z
" transform="scale(0.015625)"/>
       <path id="DejaVuSans-c5" d="M 2663 5081 
Q 2663 5278 2523 5417 
Q 2384 5556 2188 5556 
Q 1988 5556 1852 5420 
Q 1716 5284 1716 5081 
Q 1716 4884 1853 4746 
Q 1991 4609 2188 4609 
Q 2384 4609 2523 4746 
Q 2663 4884 2663 5081 
z
M 2188 4044 
L 1338 1722 
L 3041 1722 
L 2188 4044 
z
M 1716 4366 
Q 1525 4494 1428 4673 
Q 1331 4853 1331 5081 
Q 1331 5441 1579 5691 
Q 1828 5941 2188 5941 
Q 2544 5941 2795 5689 
Q 3047 5438 3047 5081 
Q 3047 4863 2948 4678 
Q 2850 4494 2663 4366 
L 4325 0 
L 3669 0 
L 3244 1197 
L 1141 1197 
L 716 0 
L 50 0 
L 1716 4366 
z
" transform="scale(0.015625)"/>
       <path id="DejaVuSans-29" d="M 513 4856 
L 1013 4856 
Q 1481 4119 1714 3412 
Q 1947 2706 1947 2009 
Q 1947 1309 1714 600 
Q 1481 -109 1013 -844 
L 513 -844 
Q 928 -128 1133 580 
Q 1338 1288 1338 2009 
Q 1338 2731 1133 3434 
Q 928 4138 513 4856 
z
" transform="scale(0.015625)"/>
      </defs>
      <use xlink:href="#DejaVuSans-52"/>
      <use xlink:href="#DejaVuSans-4d" x="69.482422"/>
      <use xlink:href="#DejaVuSans-53" x="155.761719"/>
      <use xlink:href="#DejaVuSans-44" x="219.238281"/>
      <use xlink:href="#DejaVuSans-20" x="296.240234"/>
      <use xlink:href="#DejaVuSans-28" x="328.027344"/>
      <use xlink:href="#DejaVuSans-c5" x="367.041016"/>
      <use xlink:href="#DejaVuSans-29" x="435.449219"/>
     </g>
    </g>
   </g>
   <g id="matplotlib.axis_2">
    <g id="ytick_1">
     <g id="line2d_6">
      <defs>
       <path id="mac445b985a" d="M 0 0 
L -3.5 0 
" style="stroke: #000000; stroke-width: 0.8"/>
      </defs>
      <g>
       <use xlink:href="#mac445b985a" x="74.925" y="293.635708" style="stroke: #000000; stroke-width: 0.8"/>
      </g>
     </g>
     <g id="text_7">
      <!-- 0 -->
      <g style="fill: #1f77b4" transform="translate(59.0175 298.954615)scale(0.14 -0.14)">
       <use xlink:href="#DejaVuSans-30"/>
      </g>
     </g>
    </g>
    <g id="ytick_2">
     <g id="line2d_7">
      <g>
       <use xlink:href="#mac445b985a" x="74.925" y="256.080807" style="stroke: #000000; stroke-width: 0.8"/>
      </g>
     </g>
     <g id="text_8">
      <!-- 1000 -->
      <g style="fill: #1f77b4" transform="translate(32.295 261.399713)scale(0.14 -0.14)">
       <use xlink:href="#DejaVuSans-31"/>
       <use xlink:href="#DejaVuSans-30" x="63.623047"/>
       <use xlink:href="#DejaVuSans-30" x="127.246094"/>
       <use xlink:href="#DejaVuSans-30" x="190.869141"/>
      </g>
     </g>
    </g>
    <g id="ytick_3">
     <g id="line2d_8">
      <g>
       <use xlink:href="#mac445b985a" x="74.925" y="218.525905" style="stroke: #000000; stroke-width: 0.8"/>
      </g>
     </g>
     <g id="text_9">
      <!-- 2000 -->
      <g style="fill: #1f77b4" transform="translate(32.295 223.844811)scale(0.14 -0.14)">
       <use xlink:href="#DejaVuSans-32"/>
       <use xlink:href="#DejaVuSans-30" x="63.623047"/>
       <use xlink:href="#DejaVuSans-30" x="127.246094"/>
       <use xlink:href="#DejaVuSans-30" x="190.869141"/>
      </g>
     </g>
    </g>
    <g id="ytick_4">
     <g id="line2d_9">
      <g>
       <use xlink:href="#mac445b985a" x="74.925" y="180.971003" style="stroke: #000000; stroke-width: 0.8"/>
      </g>
     </g>
     <g id="text_10">
      <!-- 3000 -->
      <g style="fill: #1f77b4" transform="translate(32.295 186.289909)scale(0.14 -0.14)">
       <defs>
        <path id="DejaVuSans-33" d="M 2597 2516 
Q 3050 2419 3304 2112 
Q 3559 1806 3559 1356 
Q 3559 666 3084 287 
Q 2609 -91 1734 -91 
Q 1441 -91 1130 -33 
Q 819 25 488 141 
L 488 750 
Q 750 597 1062 519 
Q 1375 441 1716 441 
Q 2309 441 2620 675 
Q 2931 909 2931 1356 
Q 2931 1769 2642 2001 
Q 2353 2234 1838 2234 
L 1294 2234 
L 1294 2753 
L 1863 2753 
Q 2328 2753 2575 2939 
Q 2822 3125 2822 3475 
Q 2822 3834 2567 4026 
Q 2313 4219 1838 4219 
Q 1578 4219 1281 4162 
Q 984 4106 628 3988 
L 628 4550 
Q 988 4650 1302 4700 
Q 1616 4750 1894 4750 
Q 2613 4750 3031 4423 
Q 3450 4097 3450 3541 
Q 3450 3153 3228 2886 
Q 3006 2619 2597 2516 
z
" transform="scale(0.015625)"/>
       </defs>
       <use xlink:href="#DejaVuSans-33"/>
       <use xlink:href="#DejaVuSans-30" x="63.623047"/>
       <use xlink:href="#DejaVuSans-30" x="127.246094"/>
       <use xlink:href="#DejaVuSans-30" x="190.869141"/>
      </g>
     </g>
    </g>
    <g id="ytick_5">
     <g id="line2d_10">
      <g>
       <use xlink:href="#mac445b985a" x="74.925" y="143.416101" style="stroke: #000000; stroke-width: 0.8"/>
      </g>
     </g>
     <g id="text_11">
      <!-- 4000 -->
      <g style="fill: #1f77b4" transform="translate(32.295 148.735008)scale(0.14 -0.14)">
       <defs>
        <path id="DejaVuSans-34" d="M 2419 4116 
L 825 1625 
L 2419 1625 
L 2419 4116 
z
M 2253 4666 
L 3047 4666 
L 3047 1625 
L 3713 1625 
L 3713 1100 
L 3047 1100 
L 3047 0 
L 2419 0 
L 2419 1100 
L 313 1100 
L 313 1709 
L 2253 4666 
z
" transform="scale(0.015625)"/>
       </defs>
       <use xlink:href="#DejaVuSans-34"/>
       <use xlink:href="#DejaVuSans-30" x="63.623047"/>
       <use xlink:href="#DejaVuSans-30" x="127.246094"/>
       <use xlink:href="#DejaVuSans-30" x="190.869141"/>
      </g>
     </g>
    </g>
    <g id="ytick_6">
     <g id="line2d_11">
      <g>
       <use xlink:href="#mac445b985a" x="74.925" y="105.8612" style="stroke: #000000; stroke-width: 0.8"/>
      </g>
     </g>
     <g id="text_12">
      <!-- 5000 -->
      <g style="fill: #1f77b4" transform="translate(32.295 111.180106)scale(0.14 -0.14)">
       <use xlink:href="#DejaVuSans-35"/>
       <use xlink:href="#DejaVuSans-30" x="63.623047"/>
       <use xlink:href="#DejaVuSans-30" x="127.246094"/>
       <use xlink:href="#DejaVuSans-30" x="190.869141"/>
      </g>
     </g>
    </g>
    <g id="ytick_7">
     <g id="line2d_12">
      <g>
       <use xlink:href="#mac445b985a" x="74.925" y="68.306298" style="stroke: #000000; stroke-width: 0.8"/>
      </g>
     </g>
     <g id="text_13">
      <!-- 6000 -->
      <g style="fill: #1f77b4" transform="translate(32.295 73.625204)scale(0.14 -0.14)">
       <defs>
        <path id="DejaVuSans-36" d="M 2113 2584 
Q 1688 2584 1439 2293 
Q 1191 2003 1191 1497 
Q 1191 994 1439 701 
Q 1688 409 2113 409 
Q 2538 409 2786 701 
Q 3034 994 3034 1497 
Q 3034 2003 2786 2293 
Q 2538 2584 2113 2584 
z
M 3366 4563 
L 3366 3988 
Q 3128 4100 2886 4159 
Q 2644 4219 2406 4219 
Q 1781 4219 1451 3797 
Q 1122 3375 1075 2522 
Q 1259 2794 1537 2939 
Q 1816 3084 2150 3084 
Q 2853 3084 3261 2657 
Q 3669 2231 3669 1497 
Q 3669 778 3244 343 
Q 2819 -91 2113 -91 
Q 1303 -91 875 529 
Q 447 1150 447 2328 
Q 447 3434 972 4092 
Q 1497 4750 2381 4750 
Q 2619 4750 2861 4703 
Q 3103 4656 3366 4563 
z
" transform="scale(0.015625)"/>
       </defs>
       <use xlink:href="#DejaVuSans-36"/>
       <use xlink:href="#DejaVuSans-30" x="63.623047"/>
       <use xlink:href="#DejaVuSans-30" x="127.246094"/>
       <use xlink:href="#DejaVuSans-30" x="190.869141"/>
      </g>
     </g>
    </g>
    <g id="text_14">
     <!-- GGGG -->
     <g style="fill: #1f77b4" transform="translate(24.551562 206.255313)rotate(-90)scale(0.18 -0.18)">
      <defs>
       <path id="DejaVuSans-47" d="M 3809 666 
L 3809 1919 
L 2778 1919 
L 2778 2438 
L 4434 2438 
L 4434 434 
Q 4069 175 3628 42 
Q 3188 -91 2688 -91 
Q 1594 -91 976 548 
Q 359 1188 359 2328 
Q 359 3472 976 4111 
Q 1594 4750 2688 4750 
Q 3144 4750 3555 4637 
Q 3966 4525 4313 4306 
L 4313 3634 
Q 3963 3931 3569 4081 
Q 3175 4231 2741 4231 
Q 1884 4231 1454 3753 
Q 1025 3275 1025 2328 
Q 1025 1384 1454 906 
Q 1884 428 2741 428 
Q 3075 428 3337 486 
Q 3600 544 3809 666 
z
" transform="scale(0.015625)"/>
      </defs>
      <use xlink:href="#DejaVuSans-47"/>
      <use xlink:href="#DejaVuSans-47" x="77.490234"/>
      <use xlink:href="#DejaVuSans-47" x="154.980469"/>
      <use xlink:href="#DejaVuSans-47" x="232.470703"/>
     </g>
    </g>
   </g>
   <g id="line2d_13">
    <path d="M 91.414773 293.598153 
L 108.407735 293.485489 
L 110.222518 293.147495 
L 112.36726 292.095957 
L 113.852082 290.743981 
L 114.182043 290.030438 
L 114.347023 289.955328 
L 116.656746 285.598959 
L 118.636509 280.078389 
L 119.79137 277.224216 
L 120.121331 276.585783 
L 123.585915 265.056428 
L 124.410816 262.577805 
L 125.565678 258.409211 
L 125.895638 257.245009 
L 126.390579 255.855477 
L 127.21548 252.96375 
L 127.54544 251.686883 
L 128.040381 249.921803 
L 128.700302 247.518289 
L 128.865282 247.180295 
L 129.360223 245.452769 
L 130.680064 241.32173 
L 134.474609 226.975758 
L 134.63959 226.525099 
L 134.96955 225.060458 
L 135.299511 224.271805 
L 135.629471 223.520707 
L 135.794451 223.145158 
L 136.124412 221.905846 
L 136.289392 221.680517 
L 136.784333 219.389668 
L 137.609234 216.610605 
L 138.434135 214.469975 
L 138.764095 213.005334 
L 139.259036 212.028907 
L 141.568759 205.494354 
L 141.733739 205.306579 
L 142.55864 203.466389 
L 143.053581 202.527517 
L 143.383541 201.776419 
L 143.878482 200.912656 
L 144.868363 198.922246 
L 145.528284 197.945819 
L 145.858244 197.607825 
L 147.343066 195.054091 
L 148.002987 194.340548 
L 151.962513 189.045307 
L 152.457453 188.557093 
L 152.952394 187.956215 
L 153.282354 187.505556 
L 153.777295 186.754458 
L 154.437216 186.040915 
L 154.767176 185.740476 
L 156.581959 183.93784 
L 158.066781 182.02254 
L 158.561721 181.684546 
L 158.891682 181.308997 
L 159.386622 181.008558 
L 160.046543 180.33257 
L 160.871444 179.844356 
L 161.696345 178.642599 
L 162.026306 178.49238 
L 162.521246 177.891501 
L 162.851207 177.628617 
L 163.346148 177.440842 
L 163.676108 177.177958 
L 164.501009 176.727299 
L 164.99595 176.389305 
L 165.32591 176.051311 
L 165.820851 175.825982 
L 166.315791 175.525542 
L 167.470653 174.624225 
L 167.965594 174.286231 
L 168.295554 174.098456 
L 168.625514 174.060901 
L 168.955475 173.835572 
L 169.450416 173.572688 
L 169.780376 173.384913 
L 170.770257 172.784035 
L 171.430178 172.67137 
L 171.760139 172.52115 
L 172.58504 172.220711 
L 173.739901 171.544723 
L 173.904881 171.507168 
L 174.234842 171.169174 
L 176.214604 169.817197 
L 177.369466 169.441648 
L 177.699426 169.178764 
L 179.184248 168.540331 
L 180.66907 168.164782 
L 182.153892 167.601458 
L 182.648833 167.376129 
L 183.143774 167.150799 
L 184.298635 166.77525 
L 186.113418 166.061707 
L 187.268279 165.761268 
L 187.598239 165.573493 
L 187.9282 165.348164 
L 188.25816 165.047725 
L 189.413022 164.822395 
L 189.907963 164.521956 
L 190.402903 164.221517 
L 191.227804 164.071297 
L 192.712626 163.883523 
L 195.187329 163.770858 
L 195.35231 163.695748 
L 196.507171 163.545529 
L 196.837132 163.470419 
L 199.971756 163.282644 
L 200.136736 163.207535 
L 201.456578 163.057315 
L 207.065905 162.493992 
L 220.924243 162.043333 
L 225.70867 161.855558 
L 226.368591 161.780448 
L 229.173254 161.630229 
L 230.823056 161.367344 
L 232.802819 161.17957 
L 236.102423 160.804021 
L 240.391909 160.578692 
L 240.721869 160.541137 
L 242.866612 160.466027 
L 243.856494 160.203143 
L 244.186454 160.165588 
L 244.516414 159.940258 
L 246.661157 159.677374 
L 247.486058 159.602264 
L 250.290722 159.376935 
L 251.610564 159.226715 
L 252.105504 159.151605 
L 255.240129 159.001386 
L 258.869693 158.625837 
L 259.034674 158.588282 
L 260.684476 158.438062 
L 267.778625 157.461635 
L 269.758388 157.161195 
L 270.418309 156.973421 
L 271.903131 156.560317 
L 272.563051 156.072103 
L 275.532695 154.832792 
L 276.357596 154.532352 
L 277.017517 154.231913 
L 277.347478 154.006584 
L 279.16226 153.480815 
L 279.822181 153.293041 
L 281.142023 152.879937 
L 281.801944 152.504388 
L 281.966924 152.466833 
L 282.296884 152.203948 
L 284.441627 151.60307 
L 285.761469 151.077301 
L 286.256409 150.889527 
L 287.081311 150.288648 
L 288.236172 149.988209 
L 288.896093 149.53755 
L 290.215935 149.199556 
L 290.380915 148.936672 
L 290.875856 148.786452 
L 291.535776 148.561123 
L 293.020598 147.659805 
L 293.680519 147.396921 
L 294.50542 146.946262 
L 295.165341 146.908707 
L 295.495302 146.720933 
L 295.825262 146.458048 
L 296.815143 145.669396 
L 298.134985 144.580303 
L 299.619807 144.129645 
L 299.949767 143.979425 
L 300.114748 143.716541 
L 300.279728 143.716541 
L 301.434589 142.815223 
L 302.09451 142.627449 
L 302.754431 142.17679 
L 303.414352 141.763686 
L 303.909293 141.425692 
L 304.074273 141.350582 
L 304.569214 141.313027 
L 304.734194 141.125252 
L 305.064154 141.050143 
L 305.394115 140.937478 
L 306.054036 140.712149 
L 306.878937 140.03616 
L 307.208897 139.998605 
L 307.538857 139.848386 
L 307.868818 139.773276 
L 308.693719 139.322617 
L 309.6836 138.571519 
L 310.838462 138.19597 
L 311.333402 137.933086 
L 311.498383 137.895531 
L 311.993323 137.482427 
L 312.653244 137.219543 
L 313.643126 136.806439 
L 313.973086 136.768884 
L 314.138066 136.618664 
L 317.602651 135.717347 
L 319.252453 135.078913 
L 323.376958 134.252705 
L 323.871899 134.177596 
L 324.86178 133.989821 
L 326.511582 133.351388 
L 328.656325 133.013394 
L 334.760593 131.548753 
L 335.090554 131.323423 
L 335.420514 131.248313 
L 336.245415 130.985429 
L 336.740356 130.910319 
L 337.235297 130.7601 
L 337.895217 130.647435 
L 338.555138 130.234331 
L 342.184703 129.370568 
L 342.349683 129.220349 
L 342.679644 129.220349 
L 343.834505 128.882354 
L 344.329446 128.882354 
L 344.659406 128.732135 
L 346.309209 128.469251 
L 348.288971 128.168811 
L 349.278852 127.793262 
L 352.083516 127.492823 
L 356.702962 126.816835 
L 357.032923 126.62906 
L 357.527863 126.516396 
L 358.022804 126.403731 
L 358.682725 126.328621 
L 358.847705 126.253511 
L 360.167547 126.028182 
L 360.992448 125.727743 
L 361.487389 125.652633 
L 361.817349 125.502413 
L 362.64225 125.464858 
L 362.972211 125.389749 
L 364.951973 124.826425 
L 365.446914 124.525986 
L 365.941854 124.300656 
L 366.271815 124.300656 
L 367.096716 123.849998 
L 367.426676 123.662223 
L 367.756637 123.399339 
L 370.726281 121.934698 
L 372.046122 120.920715 
L 372.541063 120.432502 
L 372.706043 120.394947 
L 373.365964 119.681404 
L 373.530944 119.643849 
L 374.025885 119.04297 
L 375.675687 117.27789 
L 375.840667 117.20278 
L 376.170628 116.902341 
L 376.500588 116.601902 
L 376.830549 116.151243 
L 376.995529 116.076133 
L 377.65545 115.062151 
L 380.460114 111.419325 
L 380.955054 111.006221 
L 381.449995 110.367788 
L 382.109916 109.46647 
L 382.439876 109.015811 
L 382.769837 108.790482 
L 383.099797 108.452488 
L 383.429757 108.001829 
L 384.749599 106.349413 
L 385.07956 106.048974 
L 385.739481 104.884772 
L 386.069441 104.584333 
L 386.399401 104.359004 
L 386.564382 104.096119 
L 387.059322 103.87079 
L 387.224302 103.758125 
L 387.884223 102.781698 
L 388.544144 102.218374 
L 389.204065 101.617496 
L 389.369045 101.579941 
L 389.863986 100.903953 
L 390.193946 100.678623 
L 390.358927 100.415739 
L 391.513788 99.514421 
L 392.008729 98.913543 
L 393.493551 97.336237 
L 393.658531 97.261127 
L 394.153472 96.772914 
L 394.813392 96.397365 
L 395.308333 95.871596 
L 395.803274 95.420937 
L 396.463195 94.782504 
L 396.793155 94.744949 
L 399.432839 91.890776 
L 399.927779 91.515227 
L 400.25774 91.139678 
L 400.42272 91.102123 
L 401.082641 90.31347 
L 401.247621 90.200806 
L 401.577581 89.825257 
L 403.722324 87.233968 
L 404.217265 86.63309 
L 404.547225 86.370206 
L 404.877186 85.806882 
L 405.537107 85.168449 
L 405.702087 85.055784 
L 406.197027 84.454906 
L 406.526988 84.229576 
L 406.856948 84.041802 
L 407.186909 83.591143 
L 408.506751 82.351831 
L 409.001691 81.638288 
L 409.826592 80.774525 
L 410.981454 79.084555 
L 411.311414 78.446121 
L 411.476394 78.333457 
L 411.806355 77.845243 
L 411.971335 77.732578 
L 412.301296 77.319474 
L 413.621137 75.516839 
L 413.951098 74.840851 
L 415.105959 73.188435 
L 415.43592 72.850441 
L 416.095841 71.611129 
L 419.560425 65.414571 
L 419.890386 65.189241 
L 420.385326 64.250369 
L 420.715287 63.87482 
L 421.210227 63.123722 
L 421.210227 63.123722 
" clip-path="url(#p497034fce6)" style="fill: none; stroke: #1f77b4; stroke-width: 1.5; stroke-linecap: square"/>
   </g>
   <g id="patch_3">
    <path d="M 74.925 305.121875 
L 74.925 51.6 
" style="fill: none; stroke: #000000; stroke-width: 0.8; stroke-linejoin: miter; stroke-linecap: square"/>
   </g>
   <g id="patch_4">
    <path d="M 437.7 305.121875 
L 437.7 51.6 
" style="fill: none; stroke: #000000; stroke-width: 0.8; stroke-linejoin: miter; stroke-linecap: square"/>
   </g>
   <g id="patch_5">
    <path d="M 74.925 305.121875 
L 437.7 305.121875 
" style="fill: none; stroke: #000000; stroke-width: 0.8; stroke-linejoin: miter; stroke-linecap: square"/>
   </g>
   <g id="patch_6">
    <path d="M 74.925 51.6 
L 437.7 51.6 
" style="fill: none; stroke: #000000; stroke-width: 0.8; stroke-linejoin: miter; stroke-linecap: square"/>
   </g>
   <g id="text_15">
    <!-- parallel-G4 matches  -->
    <g transform="translate(162.147188 25.443938)scale(0.18 -0.18)">
     <defs>
      <path id="DejaVuSans-70" d="M 1159 525 
L 1159 -1331 
L 581 -1331 
L 581 3500 
L 1159 3500 
L 1159 2969 
Q 1341 3281 1617 3432 
Q 1894 3584 2278 3584 
Q 2916 3584 3314 3078 
Q 3713 2572 3713 1747 
Q 3713 922 3314 415 
Q 2916 -91 2278 -91 
Q 1894 -91 1617 61 
Q 1341 213 1159 525 
z
M 3116 1747 
Q 3116 2381 2855 2742 
Q 2594 3103 2138 3103 
Q 1681 3103 1420 2742 
Q 1159 2381 1159 1747 
Q 1159 1113 1420 752 
Q 1681 391 2138 391 
Q 2594 391 2855 752 
Q 3116 1113 3116 1747 
z
" transform="scale(0.015625)"/>
      <path id="DejaVuSans-61" d="M 2194 1759 
Q 1497 1759 1228 1600 
Q 959 1441 959 1056 
Q 959 750 1161 570 
Q 1363 391 1709 391 
Q 2188 391 2477 730 
Q 2766 1069 2766 1631 
L 2766 1759 
L 2194 1759 
z
M 3341 1997 
L 3341 0 
L 2766 0 
L 2766 531 
Q 2569 213 2275 61 
Q 1981 -91 1556 -91 
Q 1019 -91 701 211 
Q 384 513 384 1019 
Q 384 1609 779 1909 
Q 1175 2209 1959 2209 
L 2766 2209 
L 2766 2266 
Q 2766 2663 2505 2880 
Q 2244 3097 1772 3097 
Q 1472 3097 1187 3025 
Q 903 2953 641 2809 
L 641 3341 
Q 956 3463 1253 3523 
Q 1550 3584 1831 3584 
Q 2591 3584 2966 3190 
Q 3341 2797 3341 1997 
z
" transform="scale(0.015625)"/>
      <path id="DejaVuSans-72" d="M 2631 2963 
Q 2534 3019 2420 3045 
Q 2306 3072 2169 3072 
Q 1681 3072 1420 2755 
Q 1159 2438 1159 1844 
L 1159 0 
L 581 0 
L 581 3500 
L 1159 3500 
L 1159 2956 
Q 1341 3275 1631 3429 
Q 1922 3584 2338 3584 
Q 2397 3584 2469 3576 
Q 2541 3569 2628 3553 
L 2631 2963 
z
" transform="scale(0.015625)"/>
      <path id="DejaVuSans-6c" d="M 603 4863 
L 1178 4863 
L 1178 0 
L 603 0 
L 603 4863 
z
" transform="scale(0.015625)"/>
      <path id="DejaVuSans-65" d="M 3597 1894 
L 3597 1613 
L 953 1613 
Q 991 1019 1311 708 
Q 1631 397 2203 397 
Q 2534 397 2845 478 
Q 3156 559 3463 722 
L 3463 178 
Q 3153 47 2828 -22 
Q 2503 -91 2169 -91 
Q 1331 -91 842 396 
Q 353 884 353 1716 
Q 353 2575 817 3079 
Q 1281 3584 2069 3584 
Q 2775 3584 3186 3129 
Q 3597 2675 3597 1894 
z
M 3022 2063 
Q 3016 2534 2758 2815 
Q 2500 3097 2075 3097 
Q 1594 3097 1305 2825 
Q 1016 2553 972 2059 
L 3022 2063 
z
" transform="scale(0.015625)"/>
      <path id="DejaVuSans-2d" d="M 313 2009 
L 1997 2009 
L 1997 1497 
L 313 1497 
L 313 2009 
z
" transform="scale(0.015625)"/>
      <path id="DejaVuSans-6d" d="M 3328 2828 
Q 3544 3216 3844 3400 
Q 4144 3584 4550 3584 
Q 5097 3584 5394 3201 
Q 5691 2819 5691 2113 
L 5691 0 
L 5113 0 
L 5113 2094 
Q 5113 2597 4934 2840 
Q 4756 3084 4391 3084 
Q 3944 3084 3684 2787 
Q 3425 2491 3425 1978 
L 3425 0 
L 2847 0 
L 2847 2094 
Q 2847 2600 2669 2842 
Q 2491 3084 2119 3084 
Q 1678 3084 1418 2786 
Q 1159 2488 1159 1978 
L 1159 0 
L 581 0 
L 581 3500 
L 1159 3500 
L 1159 2956 
Q 1356 3278 1631 3431 
Q 1906 3584 2284 3584 
Q 2666 3584 2933 3390 
Q 3200 3197 3328 2828 
z
" transform="scale(0.015625)"/>
      <path id="DejaVuSans-74" d="M 1172 4494 
L 1172 3500 
L 2356 3500 
L 2356 3053 
L 1172 3053 
L 1172 1153 
Q 1172 725 1289 603 
Q 1406 481 1766 481 
L 2356 481 
L 2356 0 
L 1766 0 
Q 1100 0 847 248 
Q 594 497 594 1153 
L 594 3053 
L 172 3053 
L 172 3500 
L 594 3500 
L 594 4494 
L 1172 4494 
z
" transform="scale(0.015625)"/>
      <path id="DejaVuSans-63" d="M 3122 3366 
L 3122 2828 
Q 2878 2963 2633 3030 
Q 2388 3097 2138 3097 
Q 1578 3097 1268 2742 
Q 959 2388 959 1747 
Q 959 1106 1268 751 
Q 1578 397 2138 397 
Q 2388 397 2633 464 
Q 2878 531 3122 666 
L 3122 134 
Q 2881 22 2623 -34 
Q 2366 -91 2075 -91 
Q 1284 -91 818 406 
Q 353 903 353 1747 
Q 353 2603 823 3093 
Q 1294 3584 2113 3584 
Q 2378 3584 2631 3529 
Q 2884 3475 3122 3366 
z
" transform="scale(0.015625)"/>
      <path id="DejaVuSans-68" d="M 3513 2113 
L 3513 0 
L 2938 0 
L 2938 2094 
Q 2938 2591 2744 2837 
Q 2550 3084 2163 3084 
Q 1697 3084 1428 2787 
Q 1159 2491 1159 1978 
L 1159 0 
L 581 0 
L 581 4863 
L 1159 4863 
L 1159 2956 
Q 1366 3272 1645 3428 
Q 1925 3584 2291 3584 
Q 2894 3584 3203 3211 
Q 3513 2838 3513 2113 
z
" transform="scale(0.015625)"/>
      <path id="DejaVuSans-73" d="M 2834 3397 
L 2834 2853 
Q 2591 2978 2328 3040 
Q 2066 3103 1784 3103 
Q 1356 3103 1142 2972 
Q 928 2841 928 2578 
Q 928 2378 1081 2264 
Q 1234 2150 1697 2047 
L 1894 2003 
Q 2506 1872 2764 1633 
Q 3022 1394 3022 966 
Q 3022 478 2636 193 
Q 2250 -91 1575 -91 
Q 1294 -91 989 -36 
Q 684 19 347 128 
L 347 722 
Q 666 556 975 473 
Q 1284 391 1588 391 
Q 1994 391 2212 530 
Q 2431 669 2431 922 
Q 2431 1156 2273 1281 
Q 2116 1406 1581 1522 
L 1381 1569 
Q 847 1681 609 1914 
Q 372 2147 372 2553 
Q 372 3047 722 3315 
Q 1072 3584 1716 3584 
Q 2034 3584 2315 3537 
Q 2597 3491 2834 3397 
z
" transform="scale(0.015625)"/>
     </defs>
     <use xlink:href="#DejaVuSans-70"/>
     <use xlink:href="#DejaVuSans-61" x="63.476562"/>
     <use xlink:href="#DejaVuSans-72" x="124.755859"/>
     <use xlink:href="#DejaVuSans-61" x="165.869141"/>
     <use xlink:href="#DejaVuSans-6c" x="227.148438"/>
     <use xlink:href="#DejaVuSans-6c" x="254.931641"/>
     <use xlink:href="#DejaVuSans-65" x="282.714844"/>
     <use xlink:href="#DejaVuSans-6c" x="344.238281"/>
     <use xlink:href="#DejaVuSans-2d" x="372.021484"/>
     <use xlink:href="#DejaVuSans-47" x="411.730469"/>
     <use xlink:href="#DejaVuSans-34" x="489.220703"/>
     <use xlink:href="#DejaVuSans-20" x="552.84375"/>
     <use xlink:href="#DejaVuSans-6d" x="584.630859"/>
     <use xlink:href="#DejaVuSans-61" x="682.042969"/>
     <use xlink:href="#DejaVuSans-74" x="743.322266"/>
     <use xlink:href="#DejaVuSans-63" x="782.53125"/>
     <use xlink:href="#DejaVuSans-68" x="837.511719"/>
     <use xlink:href="#DejaVuSans-65" x="900.890625"/>
     <use xlink:href="#DejaVuSans-73" x="962.414062"/>
     <use xlink:href="#DejaVuSans-20" x="1014.513672"/>
    </g>
    <!-- in DNA-containing PDB entries -->
    <g transform="translate(119.610938 45.6)scale(0.18 -0.18)">
     <defs>
      <path id="DejaVuSans-69" d="M 603 3500 
L 1178 3500 
L 1178 0 
L 603 0 
L 603 3500 
z
M 603 4863 
L 1178 4863 
L 1178 4134 
L 603 4134 
L 603 4863 
z
" transform="scale(0.015625)"/>
      <path id="DejaVuSans-6e" d="M 3513 2113 
L 3513 0 
L 2938 0 
L 2938 2094 
Q 2938 2591 2744 2837 
Q 2550 3084 2163 3084 
Q 1697 3084 1428 2787 
Q 1159 2491 1159 1978 
L 1159 0 
L 581 0 
L 581 3500 
L 1159 3500 
L 1159 2956 
Q 1366 3272 1645 3428 
Q 1925 3584 2291 3584 
Q 2894 3584 3203 3211 
Q 3513 2838 3513 2113 
z
" transform="scale(0.015625)"/>
      <path id="DejaVuSans-4e" d="M 628 4666 
L 1478 4666 
L 3547 763 
L 3547 4666 
L 4159 4666 
L 4159 0 
L 3309 0 
L 1241 3903 
L 1241 0 
L 628 0 
L 628 4666 
z
" transform="scale(0.015625)"/>
      <path id="DejaVuSans-41" d="M 2188 4044 
L 1331 1722 
L 3047 1722 
L 2188 4044 
z
M 1831 4666 
L 2547 4666 
L 4325 0 
L 3669 0 
L 3244 1197 
L 1141 1197 
L 716 0 
L 50 0 
L 1831 4666 
z
" transform="scale(0.015625)"/>
      <path id="DejaVuSans-6f" d="M 1959 3097 
Q 1497 3097 1228 2736 
Q 959 2375 959 1747 
Q 959 1119 1226 758 
Q 1494 397 1959 397 
Q 2419 397 2687 759 
Q 2956 1122 2956 1747 
Q 2956 2369 2687 2733 
Q 2419 3097 1959 3097 
z
M 1959 3584 
Q 2709 3584 3137 3096 
Q 3566 2609 3566 1747 
Q 3566 888 3137 398 
Q 2709 -91 1959 -91 
Q 1206 -91 779 398 
Q 353 888 353 1747 
Q 353 2609 779 3096 
Q 1206 3584 1959 3584 
z
" transform="scale(0.015625)"/>
      <path id="DejaVuSans-67" d="M 2906 1791 
Q 2906 2416 2648 2759 
Q 2391 3103 1925 3103 
Q 1463 3103 1205 2759 
Q 947 2416 947 1791 
Q 947 1169 1205 825 
Q 1463 481 1925 481 
Q 2391 481 2648 825 
Q 2906 1169 2906 1791 
z
M 3481 434 
Q 3481 -459 3084 -895 
Q 2688 -1331 1869 -1331 
Q 1566 -1331 1297 -1286 
Q 1028 -1241 775 -1147 
L 775 -588 
Q 1028 -725 1275 -790 
Q 1522 -856 1778 -856 
Q 2344 -856 2625 -561 
Q 2906 -266 2906 331 
L 2906 616 
Q 2728 306 2450 153 
Q 2172 0 1784 0 
Q 1141 0 747 490 
Q 353 981 353 1791 
Q 353 2603 747 3093 
Q 1141 3584 1784 3584 
Q 2172 3584 2450 3431 
Q 2728 3278 2906 2969 
L 2906 3500 
L 3481 3500 
L 3481 434 
z
" transform="scale(0.015625)"/>
      <path id="DejaVuSans-50" d="M 1259 4147 
L 1259 2394 
L 2053 2394 
Q 2494 2394 2734 2622 
Q 2975 2850 2975 3272 
Q 2975 3691 2734 3919 
Q 2494 4147 2053 4147 
L 1259 4147 
z
M 628 4666 
L 2053 4666 
Q 2838 4666 3239 4311 
Q 3641 3956 3641 3272 
Q 3641 2581 3239 2228 
Q 2838 1875 2053 1875 
L 1259 1875 
L 1259 0 
L 628 0 
L 628 4666 
z
" transform="scale(0.015625)"/>
      <path id="DejaVuSans-42" d="M 1259 2228 
L 1259 519 
L 2272 519 
Q 2781 519 3026 730 
Q 3272 941 3272 1375 
Q 3272 1813 3026 2020 
Q 2781 2228 2272 2228 
L 1259 2228 
z
M 1259 4147 
L 1259 2741 
L 2194 2741 
Q 2656 2741 2882 2914 
Q 3109 3088 3109 3444 
Q 3109 3797 2882 3972 
Q 2656 4147 2194 4147 
L 1259 4147 
z
M 628 4666 
L 2241 4666 
Q 2963 4666 3353 4366 
Q 3744 4066 3744 3513 
Q 3744 3084 3544 2831 
Q 3344 2578 2956 2516 
Q 3422 2416 3680 2098 
Q 3938 1781 3938 1306 
Q 3938 681 3513 340 
Q 3088 0 2303 0 
L 628 0 
L 628 4666 
z
" transform="scale(0.015625)"/>
     </defs>
     <use xlink:href="#DejaVuSans-69"/>
     <use xlink:href="#DejaVuSans-6e" x="27.783203"/>
     <use xlink:href="#DejaVuSans-20" x="91.162109"/>
     <use xlink:href="#DejaVuSans-44" x="122.949219"/>
     <use xlink:href="#DejaVuSans-4e" x="199.951172"/>
     <use xlink:href="#DejaVuSans-41" x="274.755859"/>
     <use xlink:href="#DejaVuSans-2d" x="340.914062"/>
     <use xlink:href="#DejaVuSans-63" x="376.998047"/>
     <use xlink:href="#DejaVuSans-6f" x="431.978516"/>
     <use xlink:href="#DejaVuSans-6e" x="493.160156"/>
     <use xlink:href="#DejaVuSans-74" x="556.539062"/>
     <use xlink:href="#DejaVuSans-61" x="595.748047"/>
     <use xlink:href="#DejaVuSans-69" x="657.027344"/>
     <use xlink:href="#DejaVuSans-6e" x="684.810547"/>
     <use xlink:href="#DejaVuSans-69" x="748.189453"/>
     <use xlink:href="#DejaVuSans-6e" x="775.972656"/>
     <use xlink:href="#DejaVuSans-67" x="839.351562"/>
     <use xlink:href="#DejaVuSans-20" x="902.828125"/>
     <use xlink:href="#DejaVuSans-50" x="934.615234"/>
     <use xlink:href="#DejaVuSans-44" x="994.917969"/>
     <use xlink:href="#DejaVuSans-42" x="1071.919922"/>
     <use xlink:href="#DejaVuSans-20" x="1140.523438"/>
     <use xlink:href="#DejaVuSans-65" x="1172.310547"/>
     <use xlink:href="#DejaVuSans-6e" x="1233.833984"/>
     <use xlink:href="#DejaVuSans-74" x="1297.212891"/>
     <use xlink:href="#DejaVuSans-72" x="1336.421875"/>
     <use xlink:href="#DejaVuSans-69" x="1377.535156"/>
     <use xlink:href="#DejaVuSans-65" x="1405.318359"/>
     <use xlink:href="#DejaVuSans-73" x="1466.841797"/>
    </g>
   </g>
  </g>
  <g id="axes_2">
   <g id="matplotlib.axis_3">
    <g id="ytick_8">
     <g id="line2d_14">
      <defs>
       <path id="m19bcc8dc3f" d="M 0 0 
L 3.5 0 
" style="stroke: #000000; stroke-width: 0.8"/>
      </defs>
      <g>
       <use xlink:href="#m19bcc8dc3f" x="437.7" y="293.598153" style="stroke: #000000; stroke-width: 0.8"/>
      </g>
     </g>
     <g id="text_16">
      <!-- 0 -->
      <g style="fill: #ff7f0e" transform="translate(444.7 298.91706)scale(0.14 -0.14)">
       <use xlink:href="#DejaVuSans-30"/>
      </g>
     </g>
    </g>
    <g id="ytick_9">
     <g id="line2d_15">
      <g>
       <use xlink:href="#m19bcc8dc3f" x="437.7" y="254.268046" style="stroke: #000000; stroke-width: 0.8"/>
      </g>
     </g>
     <g id="text_17">
      <!-- 50 -->
      <g style="fill: #ff7f0e" transform="translate(444.7 259.586952)scale(0.14 -0.14)">
       <use xlink:href="#DejaVuSans-35"/>
       <use xlink:href="#DejaVuSans-30" x="63.623047"/>
      </g>
     </g>
    </g>
    <g id="ytick_10">
     <g id="line2d_16">
      <g>
       <use xlink:href="#m19bcc8dc3f" x="437.7" y="214.937938" style="stroke: #000000; stroke-width: 0.8"/>
      </g>
     </g>
     <g id="text_18">
      <!-- 100 -->
      <g style="fill: #ff7f0e" transform="translate(444.7 220.256844)scale(0.14 -0.14)">
       <use xlink:href="#DejaVuSans-31"/>
       <use xlink:href="#DejaVuSans-30" x="63.623047"/>
       <use xlink:href="#DejaVuSans-30" x="127.246094"/>
      </g>
     </g>
    </g>
    <g id="ytick_11">
     <g id="line2d_17">
      <g>
       <use xlink:href="#m19bcc8dc3f" x="437.7" y="175.60783" style="stroke: #000000; stroke-width: 0.8"/>
      </g>
     </g>
     <g id="text_19">
      <!-- 150 -->
      <g style="fill: #ff7f0e" transform="translate(444.7 180.926736)scale(0.14 -0.14)">
       <use xlink:href="#DejaVuSans-31"/>
       <use xlink:href="#DejaVuSans-35" x="63.623047"/>
       <use xlink:href="#DejaVuSans-30" x="127.246094"/>
      </g>
     </g>
    </g>
    <g id="ytick_12">
     <g id="line2d_18">
      <g>
       <use xlink:href="#m19bcc8dc3f" x="437.7" y="136.277722" style="stroke: #000000; stroke-width: 0.8"/>
      </g>
     </g>
     <g id="text_20">
      <!-- 200 -->
      <g style="fill: #ff7f0e" transform="translate(444.7 141.596628)scale(0.14 -0.14)">
       <use xlink:href="#DejaVuSans-32"/>
       <use xlink:href="#DejaVuSans-30" x="63.623047"/>
       <use xlink:href="#DejaVuSans-30" x="127.246094"/>
      </g>
     </g>
    </g>
    <g id="ytick_13">
     <g id="line2d_19">
      <g>
       <use xlink:href="#m19bcc8dc3f" x="437.7" y="96.947614" style="stroke: #000000; stroke-width: 0.8"/>
      </g>
     </g>
     <g id="text_21">
      <!-- 250 -->
      <g style="fill: #ff7f0e" transform="translate(444.7 102.266521)scale(0.14 -0.14)">
       <use xlink:href="#DejaVuSans-32"/>
       <use xlink:href="#DejaVuSans-35" x="63.623047"/>
       <use xlink:href="#DejaVuSans-30" x="127.246094"/>
      </g>
     </g>
    </g>
    <g id="ytick_14">
     <g id="line2d_20">
      <g>
       <use xlink:href="#m19bcc8dc3f" x="437.7" y="57.617506" style="stroke: #000000; stroke-width: 0.8"/>
      </g>
     </g>
     <g id="text_22">
      <!-- 300 -->
      <g style="fill: #ff7f0e" transform="translate(444.7 62.936413)scale(0.14 -0.14)">
       <use xlink:href="#DejaVuSans-33"/>
       <use xlink:href="#DejaVuSans-30" x="63.623047"/>
       <use xlink:href="#DejaVuSans-30" x="127.246094"/>
      </g>
     </g>
    </g>
    <g id="text_23">
     <!-- not GGGG -->
     <g style="fill: #ff7f0e" transform="translate(489.099688 223.854531)rotate(-90)scale(0.18 -0.18)">
      <use xlink:href="#DejaVuSans-6e"/>
      <use xlink:href="#DejaVuSans-6f" x="63.378906"/>
      <use xlink:href="#DejaVuSans-74" x="124.560547"/>
      <use xlink:href="#DejaVuSans-20" x="163.769531"/>
      <use xlink:href="#DejaVuSans-47" x="195.556641"/>
      <use xlink:href="#DejaVuSans-47" x="273.046875"/>
      <use xlink:href="#DejaVuSans-47" x="350.537109"/>
      <use xlink:href="#DejaVuSans-47" x="428.027344"/>
     </g>
    </g>
   </g>
   <g id="line2d_21">
    <path d="M 91.414773 293.598153 
L 147.673027 293.598153 
L 147.838007 292.811551 
L 148.662908 292.811551 
L 148.992869 291.238347 
L 149.322829 291.238347 
L 149.487809 290.451745 
L 149.81777 290.451745 
L 149.98275 289.665143 
L 150.31271 289.665143 
L 150.477691 288.87854 
L 151.137611 288.87854 
L 151.302592 287.305336 
L 175.059743 287.305336 
L 175.224723 286.518734 
L 175.554684 286.518734 
L 175.719664 285.732132 
L 179.019268 285.732132 
L 179.184248 284.94553 
L 181.988912 284.94553 
L 182.153892 284.158928 
L 185.123536 284.158928 
L 185.288516 283.372325 
L 186.278398 283.372325 
L 186.608358 281.799121 
L 187.103299 281.799121 
L 187.268279 281.012519 
L 188.25816 281.012519 
L 188.588121 280.225917 
L 188.753101 280.225917 
L 188.918081 279.439315 
L 203.766301 279.439315 
L 204.096261 278.652712 
L 205.086143 278.652712 
L 205.416103 277.86611 
L 206.076024 277.86611 
L 207.065905 277.079508 
L 208.055786 277.079508 
L 208.220767 276.292906 
L 214.819975 276.292906 
L 216.469778 275.506304 
L 228.513333 275.506304 
L 229.008274 274.719702 
L 229.668195 274.719702 
L 230.163136 273.933099 
L 230.658076 273.933099 
L 230.823056 273.146497 
L 233.132779 273.146497 
L 233.29776 272.359895 
L 259.859575 272.359895 
L 260.189535 271.573293 
L 260.354515 271.573293 
L 260.519496 270.786691 
L 267.448665 270.786691 
L 267.778625 270.000089 
L 277.842418 270.000089 
L 278.172379 268.426884 
L 279.492221 268.426884 
L 279.657201 267.640282 
L 283.946686 267.640282 
L 284.276647 266.85368 
L 284.441627 266.067078 
L 290.215935 266.067078 
L 290.380915 265.280476 
L 291.535776 265.280476 
L 291.700757 264.493874 
L 295.825262 264.493874 
L 295.990242 262.920669 
L 296.155222 262.920669 
L 296.320203 262.134067 
L 296.485183 262.134067 
L 296.650163 261.347465 
L 297.145104 261.347465 
L 297.310084 260.560863 
L 298.299965 260.560863 
L 298.629926 259.774261 
L 298.794906 258.987659 
L 298.959886 258.987659 
L 299.124866 258.201056 
L 299.289847 256.627852 
L 300.114748 256.627852 
L 300.279728 255.84125 
L 300.939649 255.84125 
L 301.269609 254.268046 
L 301.434589 254.268046 
L 301.59957 253.481443 
L 302.09451 253.481443 
L 302.424471 251.121637 
L 302.754431 249.548433 
L 303.084392 249.548433 
L 303.414352 247.975228 
L 303.744312 247.975228 
L 303.909293 247.188626 
L 304.734194 247.188626 
L 304.899174 246.402024 
L 305.229134 246.402024 
L 305.394115 244.82882 
L 305.889055 244.82882 
L 306.054036 244.042218 
L 306.219016 242.469013 
L 306.548976 242.469013 
L 306.713956 241.682411 
L 306.878937 241.682411 
L 307.373877 239.322605 
L 307.538857 239.322605 
L 307.703838 238.536002 
L 307.868818 238.536002 
L 308.198778 236.962798 
L 308.363759 236.962798 
L 308.528739 236.176196 
L 308.693719 236.176196 
L 308.858699 233.81639 
L 309.18866 233.81639 
L 309.35364 233.029787 
L 310.673482 233.029787 
L 310.838462 232.243185 
L 311.003442 232.243185 
L 311.168422 231.456583 
L 312.488264 231.456583 
L 312.653244 230.669981 
L 313.313165 230.669981 
L 313.643126 229.096777 
L 313.973086 228.310174 
L 316.612769 228.310174 
L 316.94273 226.73697 
L 317.602651 226.73697 
L 317.932611 223.590561 
L 318.757512 223.590561 
L 318.922492 222.803959 
L 319.747394 222.803959 
L 320.242334 222.017357 
L 321.067235 222.017357 
L 321.232216 221.230755 
L 321.727156 221.230755 
L 322.057117 218.870949 
L 322.222097 218.084346 
L 322.882018 218.084346 
L 323.046998 217.297744 
L 323.376958 217.297744 
L 323.541939 216.511142 
L 324.6968 216.511142 
L 324.86178 215.72454 
L 325.026761 215.72454 
L 325.356721 214.937938 
L 326.016642 214.937938 
L 326.181622 214.151336 
L 326.346602 214.151336 
L 326.511582 212.578131 
L 327.336484 212.578131 
L 327.996404 211.791529 
L 328.161385 210.218325 
L 328.326365 210.218325 
L 328.491345 209.431723 
L 329.316246 209.431723 
L 329.481226 208.645121 
L 329.811187 207.858518 
L 329.976167 207.071916 
L 330.306127 206.285314 
L 330.636088 203.138905 
L 331.460989 202.352303 
L 331.625969 202.352303 
L 332.12091 199.992497 
L 333.110791 199.992497 
L 333.275771 199.205895 
L 334.265653 196.846088 
L 334.430633 196.846088 
L 334.760593 196.059486 
L 335.090554 196.059486 
L 335.255534 194.486282 
L 335.585494 194.486282 
L 335.750475 193.69968 
L 336.245415 193.69968 
L 336.410396 192.913077 
L 337.070316 192.913077 
L 337.235297 192.126475 
L 340.369921 192.126475 
L 340.534901 191.339873 
L 341.524782 191.339873 
L 341.689762 190.553271 
L 342.019723 190.553271 
L 342.349683 188.980067 
L 342.679644 188.193464 
L 343.174584 188.193464 
L 343.504545 187.406862 
L 343.669525 187.406862 
L 343.999486 185.833658 
L 344.329446 183.473852 
L 344.494426 182.687249 
L 345.154347 182.687249 
L 345.319327 181.900647 
L 346.309209 181.900647 
L 346.639169 181.114045 
L 347.62905 181.114045 
L 347.794031 180.327443 
L 348.453951 180.327443 
L 348.618932 179.540841 
L 349.113872 179.540841 
L 349.278852 178.754239 
L 349.773793 177.967636 
L 350.763674 177.967636 
L 351.093635 177.181034 
L 353.403358 177.181034 
L 353.733318 175.60783 
L 354.063279 175.60783 
L 354.393239 173.248023 
L 354.558219 173.248023 
L 354.88818 172.461421 
L 355.548101 172.461421 
L 355.713081 171.674819 
L 358.022804 171.674819 
L 358.517745 166.955206 
L 358.847705 166.955206 
L 359.507626 165.382002 
L 359.672606 164.5954 
L 360.002567 164.5954 
L 360.167547 163.808798 
L 360.662487 163.808798 
L 360.992448 162.235593 
L 361.157428 160.662389 
L 361.322408 160.662389 
L 361.487389 159.875787 
L 361.652369 159.875787 
L 361.982329 158.302583 
L 362.147309 158.302583 
L 362.31229 156.729378 
L 362.64225 155.942776 
L 362.80723 155.156174 
L 362.972211 153.58297 
L 363.302171 152.796367 
L 363.467151 152.009765 
L 365.941854 152.009765 
L 366.271815 151.223163 
L 366.436795 151.223163 
L 366.601775 150.436561 
L 366.766756 150.436561 
L 366.931736 149.649959 
L 367.261696 149.649959 
L 367.426676 148.076754 
L 367.756637 148.076754 
L 367.921617 147.290152 
L 368.086597 147.290152 
L 368.251577 146.50355 
L 368.416558 146.50355 
L 368.746518 144.930346 
L 370.23134 144.930346 
L 370.726281 142.570539 
L 371.386202 142.570539 
L 371.716162 138.637529 
L 371.881142 137.850926 
L 372.541063 137.850926 
L 372.871024 133.917916 
L 373.200984 129.984905 
L 373.365964 129.984905 
L 373.695925 123.692088 
L 373.860905 122.905485 
L 374.025885 119.759077 
L 374.355846 118.185873 
L 374.685806 118.185873 
L 374.850786 117.39927 
L 375.345727 117.39927 
L 375.675687 115.826066 
L 375.840667 115.826066 
L 376.005648 114.252862 
L 376.170628 114.252862 
L 376.335608 113.46626 
L 378.810311 113.46626 
L 378.975292 112.679657 
L 379.470232 112.679657 
L 379.635212 111.893055 
L 379.800193 111.893055 
L 379.965173 111.106453 
L 380.295133 108.746647 
L 380.460114 107.960045 
L 380.625094 107.960045 
L 380.790074 107.173442 
L 384.914579 107.173442 
L 385.24454 105.600238 
L 385.5745 105.600238 
L 385.739481 104.813636 
L 386.234421 104.813636 
L 386.399401 104.027034 
L 387.059322 104.027034 
L 387.224302 103.240432 
L 389.369045 103.240432 
L 389.534026 102.453829 
L 391.018847 102.453829 
L 391.348808 100.880625 
L 391.843749 100.880625 
L 392.173709 98.520819 
L 392.99861 98.520819 
L 393.16359 97.734216 
L 394.648412 97.734216 
L 394.813392 96.947614 
L 394.978373 96.947614 
L 395.143353 96.161012 
L 395.308333 96.161012 
L 395.473313 95.37441 
L 395.638294 95.37441 
L 395.803274 94.587808 
L 395.968254 94.587808 
L 396.133234 93.801206 
L 397.948017 93.801206 
L 398.277977 92.228001 
L 398.937898 92.228001 
L 399.102878 90.654797 
L 399.927779 90.654797 
L 400.25774 89.081593 
L 401.082641 89.081593 
L 401.247621 88.294991 
L 401.577581 88.294991 
L 401.907542 86.721786 
L 402.402482 86.721786 
L 402.567463 85.935184 
L 402.732443 85.935184 
L 402.897423 85.148582 
L 405.702087 85.148582 
L 405.867067 84.36198 
L 406.197027 84.36198 
L 406.362008 83.575378 
L 408.671731 83.575378 
L 409.001691 82.002173 
L 409.166671 82.002173 
L 409.331652 81.215571 
L 410.156553 81.215571 
L 410.321533 80.428969 
L 411.311414 80.428969 
L 411.476394 79.642367 
L 412.301296 79.642367 
L 412.466276 78.855765 
L 413.456157 78.855765 
L 413.621137 78.069163 
L 413.786117 78.069163 
L 413.951098 77.28256 
L 414.116078 77.28256 
L 414.611019 74.922754 
L 415.270939 74.922754 
L 415.43592 73.34955 
L 416.425801 73.34955 
L 416.755761 71.776345 
L 418.240583 71.776345 
L 418.405564 70.989743 
L 418.735524 70.989743 
L 419.065484 69.416539 
L 419.230465 69.416539 
L 419.395445 68.629937 
L 419.725405 68.629937 
L 419.890386 67.843335 
L 420.055366 67.843335 
L 420.220346 67.056732 
L 420.385326 67.056732 
L 420.715287 64.696926 
L 420.880267 64.696926 
L 421.210227 63.123722 
L 421.210227 63.123722 
" clip-path="url(#p497034fce6)" style="fill: none; stroke: #ff7f0e; stroke-width: 1.5; stroke-linecap: square"/>
   </g>
   <g id="patch_7">
    <path d="M 74.925 305.121875 
L 74.925 51.6 
" style="fill: none; stroke: #000000; stroke-width: 0.8; stroke-linejoin: miter; stroke-linecap: square"/>
   </g>
   <g id="patch_8">
    <path d="M 437.7 305.121875 
L 437.7 51.6 
" style="fill: none; stroke: #000000; stroke-width: 0.8; stroke-linejoin: miter; stroke-linecap: square"/>
   </g>
   <g id="patch_9">
    <path d="M 74.925 305.121875 
L 437.7 305.121875 
" style="fill: none; stroke: #000000; stroke-width: 0.8; stroke-linejoin: miter; stroke-linecap: square"/>
   </g>
   <g id="patch_10">
    <path d="M 74.925 51.6 
L 437.7 51.6 
" style="fill: none; stroke: #000000; stroke-width: 0.8; stroke-linejoin: miter; stroke-linecap: square"/>
   </g>
  </g>
 </g>
 <defs>
  <clipPath id="p497034fce6">
   <rect x="74.925" y="51.6" width="362.775" height="253.521875"/>
  </clipPath>
 </defs>
</svg>
