<?xml version="1.0" encoding="utf-8" standalone="no"?>
<!DOCTYPE svg PUBLIC "-//W3C//DTD SVG 1.1//EN"
  "http://www.w3.org/Graphics/SVG/1.1/DTD/svg11.dtd">
<svg xmlns:xlink="http://www.w3.org/1999/xlink" width="504pt" height="360pt" viewBox="0 0 504 360" xmlns="http://www.w3.org/2000/svg" version="1.1">
 <metadata>
  <rdf:RDF xmlns:dc="http://purl.org/dc/elements/1.1/" xmlns:cc="http://creativecommons.org/ns#" xmlns:rdf="http://www.w3.org/1999/02/22-rdf-syntax-ns#">
   <cc:Work>
    <dc:type rdf:resource="http://purl.org/dc/dcmitype/StillImage"/>
    <dc:date>2024-10-08T15:08:27.582406</dc:date>
    <dc:format>image/svg+xml</dc:format>
    <dc:creator>
     <cc:Agent>
      <dc:title>Matplotlib v3.5.1, https://matplotlib.org/</dc:title>
     </cc:Agent>
    </dc:creator>
   </cc:Work>
  </rdf:RDF>
 </metadata>
 <defs>
  <style type="text/css">*{stroke-linejoin: round; stroke-linecap: butt}</style>
 </defs>
 <g id="figure_1">
  <g id="patch_1">
   <path d="M 0 360 
L 504 360 
L 504 0 
L 0 0 
L 0 360 
z
" style="fill: none"/>
  </g>
  <g id="axes_1">
   <g id="patch_2">
    <path d="M 74.925 305.121875 
L 437.825 305.121875 
L 437.825 51.6 
L 74.925 51.6 
z
" style="fill: #ffffff"/>
   </g>
   <g id="matplotlib.axis_1">
    <g id="xtick_1">
     <g id="line2d_1">
      <defs>
       <path id="m24413ec538" d="M 0 0 
L 0 3.5 
" style="stroke: #000000; stroke-width: 0.8"/>
      </defs>
      <g>
       <use xlink:href="#m24413ec538" x="153.835688" y="305.121875" style="stroke: #000000; stroke-width: 0.8"/>
      </g>
     </g>
     <g id="text_1">
      <!-- 0.5 -->
      <g transform="translate(142.7035 322.759687)scale(0.14 -0.14)">
       <defs>
        <path id="DejaVuSans-30" d="M 2034 4250 
Q 1547 4250 1301 3770 
Q 1056 3291 1056 2328 
Q 1056 1369 1301 889 
Q 1547 409 2034 409 
Q 2525 409 2770 889 
Q 3016 1369 3016 2328 
Q 3016 3291 2770 3770 
Q 2525 4250 2034 4250 
z
M 2034 4750 
Q 2819 4750 3233 4129 
Q 3647 3509 3647 2328 
Q 3647 1150 3233 529 
Q 2819 -91 2034 -91 
Q 1250 -91 836 529 
Q 422 1150 422 2328 
Q 422 3509 836 4129 
Q 1250 4750 2034 4750 
z
" transform="scale(0.015625)"/>
        <path id="DejaVuSans-2e" d="M 684 794 
L 1344 794 
L 1344 0 
L 684 0 
L 684 794 
z
" transform="scale(0.015625)"/>
        <path id="DejaVuSans-35" d="M 691 4666 
L 3169 4666 
L 3169 4134 
L 1269 4134 
L 1269 2991 
Q 1406 3038 1543 3061 
Q 1681 3084 1819 3084 
Q 2600 3084 3056 2656 
Q 3513 2228 3513 1497 
Q 3513 744 3044 326 
Q 2575 -91 1722 -91 
Q 1428 -91 1123 -41 
Q 819 9 494 109 
L 494 744 
Q 775 591 1075 516 
Q 1375 441 1709 441 
Q 2250 441 2565 725 
Q 2881 1009 2881 1497 
Q 2881 1984 2565 2268 
Q 2250 2553 1709 2553 
Q 1456 2553 1204 2497 
Q 953 2441 691 2322 
L 691 4666 
z
" transform="scale(0.015625)"/>
       </defs>
       <use xlink:href="#DejaVuSans-30"/>
       <use xlink:href="#DejaVuSans-2e" x="63.623047"/>
       <use xlink:href="#DejaVuSans-35" x="95.410156"/>
      </g>
     </g>
    </g>
    <g id="xtick_2">
     <g id="line2d_2">
      <g>
       <use xlink:href="#m24413ec538" x="243.000307" y="305.121875" style="stroke: #000000; stroke-width: 0.8"/>
      </g>
     </g>
     <g id="text_2">
      <!-- 1.0 -->
      <g transform="translate(231.86812 322.759687)scale(0.14 -0.14)">
       <defs>
        <path id="DejaVuSans-31" d="M 794 531 
L 1825 531 
L 1825 4091 
L 703 3866 
L 703 4441 
L 1819 4666 
L 2450 4666 
L 2450 531 
L 3481 531 
L 3481 0 
L 794 0 
L 794 531 
z
" transform="scale(0.015625)"/>
       </defs>
       <use xlink:href="#DejaVuSans-31"/>
       <use xlink:href="#DejaVuSans-2e" x="63.623047"/>
       <use xlink:href="#DejaVuSans-30" x="95.410156"/>
      </g>
     </g>
    </g>
    <g id="xtick_3">
     <g id="line2d_3">
      <g>
       <use xlink:href="#m24413ec538" x="332.164926" y="305.121875" style="stroke: #000000; stroke-width: 0.8"/>
      </g>
     </g>
     <g id="text_3">
      <!-- 1.5 -->
      <g transform="translate(321.032739 322.759687)scale(0.14 -0.14)">
       <use xlink:href="#DejaVuSans-31"/>
       <use xlink:href="#DejaVuSans-2e" x="63.623047"/>
       <use xlink:href="#DejaVuSans-35" x="95.410156"/>
      </g>
     </g>
    </g>
    <g id="xtick_4">
     <g id="line2d_4">
      <g>
       <use xlink:href="#m24413ec538" x="421.329545" y="305.121875" style="stroke: #000000; stroke-width: 0.8"/>
      </g>
     </g>
     <g id="text_4">
      <!-- 2.0 -->
      <g transform="translate(410.197358 322.759687)scale(0.14 -0.14)">
       <defs>
        <path id="DejaVuSans-32" d="M 1228 531 
L 3431 531 
L 3431 0 
L 469 0 
L 469 531 
Q 828 903 1448 1529 
Q 2069 2156 2228 2338 
Q 2531 2678 2651 2914 
Q 2772 3150 2772 3378 
Q 2772 3750 2511 3984 
Q 2250 4219 1831 4219 
Q 1534 4219 1204 4116 
Q 875 4013 500 3803 
L 500 4441 
Q 881 4594 1212 4672 
Q 1544 4750 1819 4750 
Q 2544 4750 2975 4387 
Q 3406 4025 3406 3419 
Q 3406 3131 3298 2873 
Q 3191 2616 2906 2266 
Q 2828 2175 2409 1742 
Q 1991 1309 1228 531 
z
" transform="scale(0.015625)"/>
       </defs>
       <use xlink:href="#DejaVuSans-32"/>
       <use xlink:href="#DejaVuSans-2e" x="63.623047"/>
       <use xlink:href="#DejaVuSans-30" x="95.410156"/>
      </g>
     </g>
    </g>
    <g id="text_5">
     <!-- RMSD (Å) -->
     <g transform="translate(213.672812 345.010625)scale(0.18 -0.18)">
      <defs>
       <path id="DejaVuSans-52" d="M 2841 2188 
Q 3044 2119 3236 1894 
Q 3428 1669 3622 1275 
L 4263 0 
L 3584 0 
L 2988 1197 
Q 2756 1666 2539 1819 
Q 2322 1972 1947 1972 
L 1259 1972 
L 1259 0 
L 628 0 
L 628 4666 
L 2053 4666 
Q 2853 4666 3247 4331 
Q 3641 3997 3641 3322 
Q 3641 2881 3436 2590 
Q 3231 2300 2841 2188 
z
M 1259 4147 
L 1259 2491 
L 2053 2491 
Q 2509 2491 2742 2702 
Q 2975 2913 2975 3322 
Q 2975 3731 2742 3939 
Q 2509 4147 2053 4147 
L 1259 4147 
z
" transform="scale(0.015625)"/>
       <path id="DejaVuSans-4d" d="M 628 4666 
L 1569 4666 
L 2759 1491 
L 3956 4666 
L 4897 4666 
L 4897 0 
L 4281 0 
L 4281 4097 
L 3078 897 
L 2444 897 
L 1241 4097 
L 1241 0 
L 628 0 
L 628 4666 
z
" transform="scale(0.015625)"/>
       <path id="DejaVuSans-53" d="M 3425 4513 
L 3425 3897 
Q 3066 4069 2747 4153 
Q 2428 4238 2131 4238 
Q 1616 4238 1336 4038 
Q 1056 3838 1056 3469 
Q 1056 3159 1242 3001 
Q 1428 2844 1947 2747 
L 2328 2669 
Q 3034 2534 3370 2195 
Q 3706 1856 3706 1288 
Q 3706 609 3251 259 
Q 2797 -91 1919 -91 
Q 1588 -91 1214 -16 
Q 841 59 441 206 
L 441 856 
Q 825 641 1194 531 
Q 1563 422 1919 422 
Q 2459 422 2753 634 
Q 3047 847 3047 1241 
Q 3047 1584 2836 1778 
Q 2625 1972 2144 2069 
L 1759 2144 
Q 1053 2284 737 2584 
Q 422 2884 422 3419 
Q 422 4038 858 4394 
Q 1294 4750 2059 4750 
Q 2388 4750 2728 4690 
Q 3069 4631 3425 4513 
z
" transform="scale(0.015625)"/>
       <path id="DejaVuSans-44" d="M 1259 4147 
L 1259 519 
L 2022 519 
Q 2988 519 3436 956 
Q 3884 1394 3884 2338 
Q 3884 3275 3436 3711 
Q 2988 4147 2022 4147 
L 1259 4147 
z
M 628 4666 
L 1925 4666 
Q 3281 4666 3915 4102 
Q 4550 3538 4550 2338 
Q 4550 1131 3912 565 
Q 3275 0 1925 0 
L 628 0 
L 628 4666 
z
" transform="scale(0.015625)"/>
       <path id="DejaVuSans-20" transform="scale(0.015625)"/>
       <path id="DejaVuSans-28" d="M 1984 4856 
Q 1566 4138 1362 3434 
Q 1159 2731 1159 2009 
Q 1159 1288 1364 580 
Q 1569 -128 1984 -844 
L 1484 -844 
Q 1016 -109 783 600 
Q 550 1309 550 2009 
Q 550 2706 781 3412 
Q 1013 4119 1484 4856 
L 1984 4856 
z
" transform="scale(0.015625)"/>
       <path id="DejaVuSans-c5" d="M 2663 5081 
Q 2663 5278 2523 5417 
Q 2384 5556 2188 5556 
Q 1988 5556 1852 5420 
Q 1716 5284 1716 5081 
Q 1716 4884 1853 4746 
Q 1991 4609 2188 4609 
Q 2384 4609 2523 4746 
Q 2663 4884 2663 5081 
z
M 2188 4044 
L 1338 1722 
L 3041 1722 
L 2188 4044 
z
M 1716 4366 
Q 1525 4494 1428 4673 
Q 1331 4853 1331 5081 
Q 1331 5441 1579 5691 
Q 1828 5941 2188 5941 
Q 2544 5941 2795 5689 
Q 3047 5438 3047 5081 
Q 3047 4863 2948 4678 
Q 2850 4494 2663 4366 
L 4325 0 
L 3669 0 
L 3244 1197 
L 1141 1197 
L 716 0 
L 50 0 
L 1716 4366 
z
" transform="scale(0.015625)"/>
       <path id="DejaVuSans-29" d="M 513 4856 
L 1013 4856 
Q 1481 4119 1714 3412 
Q 1947 2706 1947 2009 
Q 1947 1309 1714 600 
Q 1481 -109 1013 -844 
L 513 -844 
Q 928 -128 1133 580 
Q 1338 1288 1338 2009 
Q 1338 2731 1133 3434 
Q 928 4138 513 4856 
z
" transform="scale(0.015625)"/>
      </defs>
      <use xlink:href="#DejaVuSans-52"/>
      <use xlink:href="#DejaVuSans-4d" x="69.482422"/>
      <use xlink:href="#DejaVuSans-53" x="155.761719"/>
      <use xlink:href="#DejaVuSans-44" x="219.238281"/>
      <use xlink:href="#DejaVuSans-20" x="296.240234"/>
      <use xlink:href="#DejaVuSans-28" x="328.027344"/>
      <use xlink:href="#DejaVuSans-c5" x="367.041016"/>
      <use xlink:href="#DejaVuSans-29" x="435.449219"/>
     </g>
    </g>
   </g>
   <g id="matplotlib.axis_2">
    <g id="ytick_1">
     <g id="line2d_5">
      <defs>
       <path id="m7c9e7e6912" d="M 0 0 
L -3.5 0 
" style="stroke: #000000; stroke-width: 0.8"/>
      </defs>
      <g>
       <use xlink:href="#m7c9e7e6912" x="74.925" y="293.807866" style="stroke: #000000; stroke-width: 0.8"/>
      </g>
     </g>
     <g id="text_6">
      <!-- 0 -->
      <g style="fill: #1f77b4" transform="translate(59.0175 299.126773)scale(0.14 -0.14)">
       <use xlink:href="#DejaVuSans-30"/>
      </g>
     </g>
    </g>
    <g id="ytick_2">
     <g id="line2d_6">
      <g>
       <use xlink:href="#m7c9e7e6912" x="74.925" y="251.865295" style="stroke: #000000; stroke-width: 0.8"/>
      </g>
     </g>
     <g id="text_7">
      <!-- 200 -->
      <g style="fill: #1f77b4" transform="translate(41.2025 257.184201)scale(0.14 -0.14)">
       <use xlink:href="#DejaVuSans-32"/>
       <use xlink:href="#DejaVuSans-30" x="63.623047"/>
       <use xlink:href="#DejaVuSans-30" x="127.246094"/>
      </g>
     </g>
    </g>
    <g id="ytick_3">
     <g id="line2d_7">
      <g>
       <use xlink:href="#m7c9e7e6912" x="74.925" y="209.922723" style="stroke: #000000; stroke-width: 0.8"/>
      </g>
     </g>
     <g id="text_8">
      <!-- 400 -->
      <g style="fill: #1f77b4" transform="translate(41.2025 215.241629)scale(0.14 -0.14)">
       <defs>
        <path id="DejaVuSans-34" d="M 2419 4116 
L 825 1625 
L 2419 1625 
L 2419 4116 
z
M 2253 4666 
L 3047 4666 
L 3047 1625 
L 3713 1625 
L 3713 1100 
L 3047 1100 
L 3047 0 
L 2419 0 
L 2419 1100 
L 313 1100 
L 313 1709 
L 2253 4666 
z
" transform="scale(0.015625)"/>
       </defs>
       <use xlink:href="#DejaVuSans-34"/>
       <use xlink:href="#DejaVuSans-30" x="63.623047"/>
       <use xlink:href="#DejaVuSans-30" x="127.246094"/>
      </g>
     </g>
    </g>
    <g id="ytick_4">
     <g id="line2d_8">
      <g>
       <use xlink:href="#m7c9e7e6912" x="74.925" y="167.980151" style="stroke: #000000; stroke-width: 0.8"/>
      </g>
     </g>
     <g id="text_9">
      <!-- 600 -->
      <g style="fill: #1f77b4" transform="translate(41.2025 173.299057)scale(0.14 -0.14)">
       <defs>
        <path id="DejaVuSans-36" d="M 2113 2584 
Q 1688 2584 1439 2293 
Q 1191 2003 1191 1497 
Q 1191 994 1439 701 
Q 1688 409 2113 409 
Q 2538 409 2786 701 
Q 3034 994 3034 1497 
Q 3034 2003 2786 2293 
Q 2538 2584 2113 2584 
z
M 3366 4563 
L 3366 3988 
Q 3128 4100 2886 4159 
Q 2644 4219 2406 4219 
Q 1781 4219 1451 3797 
Q 1122 3375 1075 2522 
Q 1259 2794 1537 2939 
Q 1816 3084 2150 3084 
Q 2853 3084 3261 2657 
Q 3669 2231 3669 1497 
Q 3669 778 3244 343 
Q 2819 -91 2113 -91 
Q 1303 -91 875 529 
Q 447 1150 447 2328 
Q 447 3434 972 4092 
Q 1497 4750 2381 4750 
Q 2619 4750 2861 4703 
Q 3103 4656 3366 4563 
z
" transform="scale(0.015625)"/>
       </defs>
       <use xlink:href="#DejaVuSans-36"/>
       <use xlink:href="#DejaVuSans-30" x="63.623047"/>
       <use xlink:href="#DejaVuSans-30" x="127.246094"/>
      </g>
     </g>
    </g>
    <g id="ytick_5">
     <g id="line2d_9">
      <g>
       <use xlink:href="#m7c9e7e6912" x="74.925" y="126.037579" style="stroke: #000000; stroke-width: 0.8"/>
      </g>
     </g>
     <g id="text_10">
      <!-- 800 -->
      <g style="fill: #1f77b4" transform="translate(41.2025 131.356485)scale(0.14 -0.14)">
       <defs>
        <path id="DejaVuSans-38" d="M 2034 2216 
Q 1584 2216 1326 1975 
Q 1069 1734 1069 1313 
Q 1069 891 1326 650 
Q 1584 409 2034 409 
Q 2484 409 2743 651 
Q 3003 894 3003 1313 
Q 3003 1734 2745 1975 
Q 2488 2216 2034 2216 
z
M 1403 2484 
Q 997 2584 770 2862 
Q 544 3141 544 3541 
Q 544 4100 942 4425 
Q 1341 4750 2034 4750 
Q 2731 4750 3128 4425 
Q 3525 4100 3525 3541 
Q 3525 3141 3298 2862 
Q 3072 2584 2669 2484 
Q 3125 2378 3379 2068 
Q 3634 1759 3634 1313 
Q 3634 634 3220 271 
Q 2806 -91 2034 -91 
Q 1263 -91 848 271 
Q 434 634 434 1313 
Q 434 1759 690 2068 
Q 947 2378 1403 2484 
z
M 1172 3481 
Q 1172 3119 1398 2916 
Q 1625 2713 2034 2713 
Q 2441 2713 2670 2916 
Q 2900 3119 2900 3481 
Q 2900 3844 2670 4047 
Q 2441 4250 2034 4250 
Q 1625 4250 1398 4047 
Q 1172 3844 1172 3481 
z
" transform="scale(0.015625)"/>
       </defs>
       <use xlink:href="#DejaVuSans-38"/>
       <use xlink:href="#DejaVuSans-30" x="63.623047"/>
       <use xlink:href="#DejaVuSans-30" x="127.246094"/>
      </g>
     </g>
    </g>
    <g id="ytick_6">
     <g id="line2d_10">
      <g>
       <use xlink:href="#m7c9e7e6912" x="74.925" y="84.095007" style="stroke: #000000; stroke-width: 0.8"/>
      </g>
     </g>
     <g id="text_11">
      <!-- 1000 -->
      <g style="fill: #1f77b4" transform="translate(32.295 89.413914)scale(0.14 -0.14)">
       <use xlink:href="#DejaVuSans-31"/>
       <use xlink:href="#DejaVuSans-30" x="63.623047"/>
       <use xlink:href="#DejaVuSans-30" x="127.246094"/>
       <use xlink:href="#DejaVuSans-30" x="190.869141"/>
      </g>
     </g>
    </g>
    <g id="text_12">
     <!-- GGGG -->
     <g style="fill: #1f77b4" transform="translate(24.551562 206.255313)rotate(-90)scale(0.18 -0.18)">
      <defs>
       <path id="DejaVuSans-47" d="M 3809 666 
L 3809 1919 
L 2778 1919 
L 2778 2438 
L 4434 2438 
L 4434 434 
Q 4069 175 3628 42 
Q 3188 -91 2688 -91 
Q 1594 -91 976 548 
Q 359 1188 359 2328 
Q 359 3472 976 4111 
Q 1594 4750 2688 4750 
Q 3144 4750 3555 4637 
Q 3966 4525 4313 4306 
L 4313 3634 
Q 3963 3931 3569 4081 
Q 3175 4231 2741 4231 
Q 1884 4231 1454 3753 
Q 1025 3275 1025 2328 
Q 1025 1384 1454 906 
Q 1884 428 2741 428 
Q 3075 428 3337 486 
Q 3600 544 3809 666 
z
" transform="scale(0.015625)"/>
      </defs>
      <use xlink:href="#DejaVuSans-47"/>
      <use xlink:href="#DejaVuSans-47" x="77.490234"/>
      <use xlink:href="#DejaVuSans-47" x="154.980469"/>
      <use xlink:href="#DejaVuSans-47" x="232.470703"/>
     </g>
    </g>
   </g>
   <g id="line2d_11">
    <path d="M 91.420455 293.598153 
L 92.49043 293.388441 
L 93.025418 292.759302 
L 93.203747 292.130163 
L 93.560405 291.710738 
L 94.452052 291.291312 
L 94.987039 290.242748 
L 95.165369 290.033035 
L 95.700356 289.613609 
L 95.878686 288.774758 
L 97.483649 288.355332 
L 97.661978 288.145619 
L 98.018636 287.097055 
L 98.731953 286.04849 
L 98.910283 285.838778 
L 99.980258 283.322223 
L 100.336916 281.854233 
L 101.228563 279.966818 
L 101.406892 279.757105 
L 101.76355 278.498828 
L 102.298538 277.869689 
L 102.476867 277.450263 
L 102.833526 277.030838 
L 103.368514 275.143422 
L 103.546843 274.094858 
L 103.903501 273.885145 
L 104.26016 273.256006 
L 104.795147 272.83658 
L 104.973477 272.626868 
L 105.330135 271.788016 
L 105.508464 270.949165 
L 106.043452 269.690888 
L 106.221781 268.642323 
L 106.57844 268.222897 
L 106.935098 266.754907 
L 107.826744 265.706343 
L 108.005074 264.448066 
L 108.718391 262.770363 
L 108.89672 261.931512 
L 109.253378 261.302373 
L 109.610037 260.044096 
L 109.788366 259.414957 
L 110.145025 258.995532 
L 110.680012 257.737255 
L 111.036671 255.430413 
L 111.393329 254.591562 
L 111.749988 254.381849 
L 112.106646 252.913859 
L 112.284975 252.494433 
L 112.463305 251.655582 
L 112.641634 251.445869 
L 112.998292 250.187592 
L 113.176622 249.977879 
L 114.424926 246.832186 
L 114.603256 245.993334 
L 114.781585 245.783622 
L 114.959914 245.154483 
L 115.138243 243.896206 
L 116.564877 240.5408 
L 116.743206 239.701949 
L 117.099865 238.863097 
L 117.456523 237.395107 
L 117.634853 237.185394 
L 118.704828 234.459127 
L 119.061486 233.20085 
L 119.953133 231.313434 
L 120.48812 228.587167 
L 121.023108 227.119177 
L 121.201437 226.070613 
L 121.558096 225.651187 
L 121.914754 224.812336 
L 122.449742 224.602623 
L 122.8064 224.183197 
L 123.163059 222.92492 
L 123.341388 222.715207 
L 124.411364 220.408366 
L 124.768022 219.98894 
L 125.30301 218.311237 
L 125.481339 218.101524 
L 126.194656 216.633534 
L 126.551314 216.004396 
L 127.264631 213.697554 
L 127.442961 213.278128 
L 127.799619 213.068416 
L 128.334607 211.600426 
L 128.512936 210.342148 
L 128.691265 210.132436 
L 129.047924 208.664446 
L 129.93957 205.728466 
L 130.652887 203.84105 
L 130.831216 202.792486 
L 131.187875 202.37306 
L 132.792838 198.598228 
L 133.327826 195.871961 
L 133.506155 195.662248 
L 133.862813 194.823397 
L 134.219472 194.613684 
L 134.754459 192.935981 
L 135.111118 192.306843 
L 135.467776 191.887417 
L 137.251069 188.951437 
L 137.429398 188.741724 
L 139.21269 187.273734 
L 139.569349 186.854308 
L 139.747678 186.22517 
L 139.926007 186.015457 
L 140.639324 185.805744 
L 140.817654 185.596031 
L 141.352641 185.386318 
L 142.244287 183.28919 
L 142.422617 182.450338 
L 142.779275 182.240625 
L 143.492592 180.772635 
L 144.02758 180.562923 
L 144.205909 180.35321 
L 144.384238 179.933784 
L 144.919226 179.514358 
L 145.097555 179.304645 
L 145.632543 178.256081 
L 147.950823 176.788091 
L 148.66414 175.739527 
L 148.842469 175.529814 
L 149.734115 175.110388 
L 149.912445 174.690962 
L 150.269103 174.48125 
L 151.339079 174.271537 
L 151.517408 174.061824 
L 152.230725 173.852111 
L 152.409054 173.432685 
L 153.835688 173.01326 
L 154.192346 172.593834 
L 154.727334 172.384121 
L 155.083993 171.754982 
L 155.440651 171.335557 
L 155.975639 170.286992 
L 156.332297 170.07728 
L 156.688956 169.657854 
L 157.223943 169.448141 
L 157.402273 169.238428 
L 158.828907 169.028715 
L 159.185565 168.60929 
L 159.898882 168.399577 
L 160.255541 167.980151 
L 162.038833 167.351012 
L 162.75215 167.1413 
L 162.930479 166.931587 
L 163.465467 166.721874 
L 166.318735 166.092735 
L 166.675393 165.883022 
L 167.567039 165.67331 
L 167.923698 165.253884 
L 168.280356 165.044171 
L 171.668612 164.415032 
L 173.273575 163.995607 
L 173.451904 163.785894 
L 173.808563 163.576181 
L 175.056867 163.366468 
L 175.235197 163.156755 
L 183.081683 162.73733 
L 184.329988 162.317904 
L 193.959767 162.108191 
L 195.208071 161.898478 
L 195.743059 161.688765 
L 197.348022 161.479052 
L 223.384091 161.26934 
L 226.772346 160.849914 
L 228.020651 160.640201 
L 230.873919 160.430488 
L 234.262174 159.591637 
L 236.045467 159.381924 
L 238.363747 158.962498 
L 238.542076 158.543072 
L 242.821978 158.123647 
L 243.356966 157.913934 
L 243.713624 157.284795 
L 244.60527 156.236231 
L 244.961929 156.026518 
L 245.853575 155.816805 
L 246.745221 155.397379 
L 248.350184 154.977954 
L 248.528514 154.768241 
L 249.063501 154.768241 
L 249.24183 154.558528 
L 250.490135 151.622548 
L 251.381781 150.993409 
L 251.560111 150.783697 
L 252.095098 150.364271 
L 252.986744 149.315707 
L 254.235049 148.476855 
L 254.413378 148.267142 
L 254.948366 147.847717 
L 255.305025 146.799152 
L 255.661683 146.589439 
L 256.018342 145.960301 
L 257.266646 145.121449 
L 257.801634 144.492311 
L 258.69328 144.072885 
L 259.228268 143.443747 
L 260.654902 142.814608 
L 260.833231 142.395182 
L 263.151511 141.556331 
L 264.399816 141.136905 
L 264.756474 140.927192 
L 267.253084 140.298054 
L 268.858047 140.088341 
L 269.036376 139.878628 
L 272.067973 138.410638 
L 273.137948 138.200925 
L 274.386253 137.362074 
L 275.09957 137.152361 
L 275.277899 136.942648 
L 277.596179 136.313509 
L 278.666155 135.894084 
L 278.844484 135.684371 
L 279.201143 135.055232 
L 281.162764 134.426094 
L 281.519423 134.006668 
L 282.411069 133.377529 
L 282.589398 133.167816 
L 282.767727 132.748391 
L 283.124386 132.328965 
L 284.37269 131.699826 
L 284.907678 131.490114 
L 285.442666 130.441549 
L 286.155983 130.441549 
L 286.690971 129.812411 
L 287.047629 129.183272 
L 287.225958 128.973559 
L 287.760946 128.973559 
L 288.295934 128.344421 
L 288.652592 127.715282 
L 288.830921 127.505569 
L 289.009251 127.086144 
L 289.365909 126.666718 
L 289.722568 126.037579 
L 290.792543 125.408441 
L 291.50586 123.940451 
L 293.289152 122.891886 
L 293.467482 122.472461 
L 294.894115 121.633609 
L 295.964091 121.423896 
L 296.14242 121.214183 
L 297.034066 119.326768 
L 297.212396 119.117055 
L 298.995688 118.907342 
L 299.174017 118.697629 
L 299.709005 118.487916 
L 299.887334 118.278203 
L 301.492297 117.439352 
L 301.670627 117.019926 
L 302.027285 116.600501 
L 302.562273 115.342223 
L 302.918931 115.132511 
L 304.345565 114.713085 
L 304.523894 114.503372 
L 306.663845 113.664521 
L 307.198833 113.245095 
L 308.625467 112.615956 
L 308.982125 111.986818 
L 310.23043 111.567392 
L 310.408759 111.147966 
L 311.122076 110.938253 
L 311.835393 110.099402 
L 312.013722 109.679976 
L 312.54871 109.470263 
L 314.510332 108.211986 
L 315.401978 107.163422 
L 315.758636 106.534283 
L 316.115295 106.324571 
L 316.471953 105.695432 
L 317.006941 105.695432 
L 318.076916 105.276006 
L 318.433575 104.85658 
L 318.968563 104.646868 
L 319.68188 103.808016 
L 320.038538 103.808016 
L 322.178489 102.969165 
L 322.356818 102.549739 
L 323.070135 102.340026 
L 323.783452 101.9206 
L 326.458391 101.291462 
L 329.489988 101.081749 
L 329.846646 101.081749 
L 330.916622 100.872036 
L 331.27328 100.872036 
L 331.451609 100.662323 
L 332.343256 100.242898 
L 333.769889 99.613759 
L 334.661536 99.194333 
L 336.266499 98.565195 
L 338.049791 98.145769 
L 338.22812 97.936056 
L 339.833084 97.726343 
L 340.011413 97.51663 
L 340.903059 97.51663 
L 341.259717 97.306918 
L 341.973034 97.097205 
L 342.151364 96.887492 
L 343.04301 96.677779 
L 343.221339 96.468066 
L 343.577998 96.258353 
L 345.717948 96.258353 
L 346.074607 95.838928 
L 346.431265 95.629215 
L 347.67957 95.209789 
L 349.106204 95.209789 
L 349.99785 95.000076 
L 350.354509 94.790363 
L 350.711167 94.790363 
L 351.246155 94.58065 
L 352.137801 94.58065 
L 352.31613 94.161225 
L 354.81274 94.161225 
L 354.991069 93.741799 
L 356.239373 93.741799 
L 356.417703 93.532086 
L 358.557654 93.532086 
L 358.735983 93.322373 
L 377.282224 93.322373 
L 377.460553 93.11266 
L 377.995541 93.11266 
L 379.243845 92.902948 
L 389.051953 92.902948 
L 389.408612 92.273809 
L 389.586941 92.273809 
L 390.121929 92.064096 
L 390.656916 92.064096 
L 391.013575 91.434958 
L 391.191904 91.225245 
L 391.370233 90.805819 
L 391.548563 90.805819 
L 391.905221 90.386393 
L 392.08355 89.966968 
L 392.440209 89.757255 
L 392.618538 89.337829 
L 392.796867 89.337829 
L 392.975197 89.128116 
L 393.331855 88.079552 
L 393.866843 86.821275 
L 394.40183 86.611562 
L 394.58016 86.401849 
L 394.936818 84.933859 
L 395.650135 83.465869 
L 395.828464 83.256156 
L 396.006794 83.256156 
L 396.185123 83.046443 
L 396.89844 80.529889 
L 397.433428 80.529889 
L 397.611757 79.691037 
L 397.790086 79.691037 
L 397.968415 79.481325 
L 398.146744 78.852186 
L 398.681732 78.223047 
L 399.038391 77.384196 
L 399.395049 77.384196 
L 399.930037 77.174483 
L 400.108366 76.96477 
L 400.465025 76.96477 
L 400.643354 76.545345 
L 400.821683 76.545345 
L 401.000012 76.335632 
L 401.356671 76.335632 
L 401.713329 75.916206 
L 401.891658 75.49678 
L 402.426646 75.49678 
L 403.139963 74.02879 
L 403.85328 73.189939 
L 404.031609 73.189939 
L 404.209939 72.770513 
L 405.101585 72.770513 
L 405.279914 72.5608 
L 405.458243 72.141375 
L 405.636572 72.141375 
L 405.814902 71.931662 
L 406.528219 71.512236 
L 406.706548 71.09281 
L 407.419865 71.09281 
L 407.598194 70.883097 
L 407.954853 70.883097 
L 408.66817 70.044246 
L 409.559816 70.044246 
L 409.738145 69.834533 
L 409.916474 69.834533 
L 410.094803 69.62482 
L 410.273133 69.62482 
L 410.451462 69.415107 
L 410.629791 69.415107 
L 411.699767 68.785969 
L 412.234754 68.785969 
L 412.413084 68.576256 
L 412.769742 67.737404 
L 412.948071 67.737404 
L 413.661388 66.898553 
L 413.839717 66.479127 
L 414.018047 66.479127 
L 415.266351 65.849989 
L 415.444681 65.849989 
L 415.62301 65.640276 
L 416.692985 65.640276 
L 416.871314 65.430563 
L 417.049644 65.430563 
L 417.406302 65.011137 
L 418.119619 65.011137 
L 418.654607 64.381999 
L 418.832936 64.381999 
L 419.011265 64.172286 
L 419.367924 64.172286 
L 419.546253 63.962573 
L 419.724582 63.543147 
L 420.616229 63.543147 
L 420.794558 63.333434 
L 420.972887 63.333434 
L 421.151216 63.123722 
L 421.329545 63.123722 
L 421.329545 63.123722 
" clip-path="url(#p449cca1ac1)" style="fill: none; stroke: #1f77b4; stroke-width: 1.5; stroke-linecap: square"/>
   </g>
   <g id="patch_3">
    <path d="M 74.925 305.121875 
L 74.925 51.6 
" style="fill: none; stroke: #000000; stroke-width: 0.8; stroke-linejoin: miter; stroke-linecap: square"/>
   </g>
   <g id="patch_4">
    <path d="M 437.825 305.121875 
L 437.825 51.6 
" style="fill: none; stroke: #000000; stroke-width: 0.8; stroke-linejoin: miter; stroke-linecap: square"/>
   </g>
   <g id="patch_5">
    <path d="M 74.925 305.121875 
L 437.825 305.121875 
" style="fill: none; stroke: #000000; stroke-width: 0.8; stroke-linejoin: miter; stroke-linecap: square"/>
   </g>
   <g id="patch_6">
    <path d="M 74.925 51.6 
L 437.825 51.6 
" style="fill: none; stroke: #000000; stroke-width: 0.8; stroke-linejoin: miter; stroke-linecap: square"/>
   </g>
   <g id="text_13">
    <!-- parallel-G4 matches  -->
    <g transform="translate(162.209688 25.443938)scale(0.18 -0.18)">
     <defs>
      <path id="DejaVuSans-70" d="M 1159 525 
L 1159 -1331 
L 581 -1331 
L 581 3500 
L 1159 3500 
L 1159 2969 
Q 1341 3281 1617 3432 
Q 1894 3584 2278 3584 
Q 2916 3584 3314 3078 
Q 3713 2572 3713 1747 
Q 3713 922 3314 415 
Q 2916 -91 2278 -91 
Q 1894 -91 1617 61 
Q 1341 213 1159 525 
z
M 3116 1747 
Q 3116 2381 2855 2742 
Q 2594 3103 2138 3103 
Q 1681 3103 1420 2742 
Q 1159 2381 1159 1747 
Q 1159 1113 1420 752 
Q 1681 391 2138 391 
Q 2594 391 2855 752 
Q 3116 1113 3116 1747 
z
" transform="scale(0.015625)"/>
      <path id="DejaVuSans-61" d="M 2194 1759 
Q 1497 1759 1228 1600 
Q 959 1441 959 1056 
Q 959 750 1161 570 
Q 1363 391 1709 391 
Q 2188 391 2477 730 
Q 2766 1069 2766 1631 
L 2766 1759 
L 2194 1759 
z
M 3341 1997 
L 3341 0 
L 2766 0 
L 2766 531 
Q 2569 213 2275 61 
Q 1981 -91 1556 -91 
Q 1019 -91 701 211 
Q 384 513 384 1019 
Q 384 1609 779 1909 
Q 1175 2209 1959 2209 
L 2766 2209 
L 2766 2266 
Q 2766 2663 2505 2880 
Q 2244 3097 1772 3097 
Q 1472 3097 1187 3025 
Q 903 2953 641 2809 
L 641 3341 
Q 956 3463 1253 3523 
Q 1550 3584 1831 3584 
Q 2591 3584 2966 3190 
Q 3341 2797 3341 1997 
z
" transform="scale(0.015625)"/>
      <path id="DejaVuSans-72" d="M 2631 2963 
Q 2534 3019 2420 3045 
Q 2306 3072 2169 3072 
Q 1681 3072 1420 2755 
Q 1159 2438 1159 1844 
L 1159 0 
L 581 0 
L 581 3500 
L 1159 3500 
L 1159 2956 
Q 1341 3275 1631 3429 
Q 1922 3584 2338 3584 
Q 2397 3584 2469 3576 
Q 2541 3569 2628 3553 
L 2631 2963 
z
" transform="scale(0.015625)"/>
      <path id="DejaVuSans-6c" d="M 603 4863 
L 1178 4863 
L 1178 0 
L 603 0 
L 603 4863 
z
" transform="scale(0.015625)"/>
      <path id="DejaVuSans-65" d="M 3597 1894 
L 3597 1613 
L 953 1613 
Q 991 1019 1311 708 
Q 1631 397 2203 397 
Q 2534 397 2845 478 
Q 3156 559 3463 722 
L 3463 178 
Q 3153 47 2828 -22 
Q 2503 -91 2169 -91 
Q 1331 -91 842 396 
Q 353 884 353 1716 
Q 353 2575 817 3079 
Q 1281 3584 2069 3584 
Q 2775 3584 3186 3129 
Q 3597 2675 3597 1894 
z
M 3022 2063 
Q 3016 2534 2758 2815 
Q 2500 3097 2075 3097 
Q 1594 3097 1305 2825 
Q 1016 2553 972 2059 
L 3022 2063 
z
" transform="scale(0.015625)"/>
      <path id="DejaVuSans-2d" d="M 313 2009 
L 1997 2009 
L 1997 1497 
L 313 1497 
L 313 2009 
z
" transform="scale(0.015625)"/>
      <path id="DejaVuSans-6d" d="M 3328 2828 
Q 3544 3216 3844 3400 
Q 4144 3584 4550 3584 
Q 5097 3584 5394 3201 
Q 5691 2819 5691 2113 
L 5691 0 
L 5113 0 
L 5113 2094 
Q 5113 2597 4934 2840 
Q 4756 3084 4391 3084 
Q 3944 3084 3684 2787 
Q 3425 2491 3425 1978 
L 3425 0 
L 2847 0 
L 2847 2094 
Q 2847 2600 2669 2842 
Q 2491 3084 2119 3084 
Q 1678 3084 1418 2786 
Q 1159 2488 1159 1978 
L 1159 0 
L 581 0 
L 581 3500 
L 1159 3500 
L 1159 2956 
Q 1356 3278 1631 3431 
Q 1906 3584 2284 3584 
Q 2666 3584 2933 3390 
Q 3200 3197 3328 2828 
z
" transform="scale(0.015625)"/>
      <path id="DejaVuSans-74" d="M 1172 4494 
L 1172 3500 
L 2356 3500 
L 2356 3053 
L 1172 3053 
L 1172 1153 
Q 1172 725 1289 603 
Q 1406 481 1766 481 
L 2356 481 
L 2356 0 
L 1766 0 
Q 1100 0 847 248 
Q 594 497 594 1153 
L 594 3053 
L 172 3053 
L 172 3500 
L 594 3500 
L 594 4494 
L 1172 4494 
z
" transform="scale(0.015625)"/>
      <path id="DejaVuSans-63" d="M 3122 3366 
L 3122 2828 
Q 2878 2963 2633 3030 
Q 2388 3097 2138 3097 
Q 1578 3097 1268 2742 
Q 959 2388 959 1747 
Q 959 1106 1268 751 
Q 1578 397 2138 397 
Q 2388 397 2633 464 
Q 2878 531 3122 666 
L 3122 134 
Q 2881 22 2623 -34 
Q 2366 -91 2075 -91 
Q 1284 -91 818 406 
Q 353 903 353 1747 
Q 353 2603 823 3093 
Q 1294 3584 2113 3584 
Q 2378 3584 2631 3529 
Q 2884 3475 3122 3366 
z
" transform="scale(0.015625)"/>
      <path id="DejaVuSans-68" d="M 3513 2113 
L 3513 0 
L 2938 0 
L 2938 2094 
Q 2938 2591 2744 2837 
Q 2550 3084 2163 3084 
Q 1697 3084 1428 2787 
Q 1159 2491 1159 1978 
L 1159 0 
L 581 0 
L 581 4863 
L 1159 4863 
L 1159 2956 
Q 1366 3272 1645 3428 
Q 1925 3584 2291 3584 
Q 2894 3584 3203 3211 
Q 3513 2838 3513 2113 
z
" transform="scale(0.015625)"/>
      <path id="DejaVuSans-73" d="M 2834 3397 
L 2834 2853 
Q 2591 2978 2328 3040 
Q 2066 3103 1784 3103 
Q 1356 3103 1142 2972 
Q 928 2841 928 2578 
Q 928 2378 1081 2264 
Q 1234 2150 1697 2047 
L 1894 2003 
Q 2506 1872 2764 1633 
Q 3022 1394 3022 966 
Q 3022 478 2636 193 
Q 2250 -91 1575 -91 
Q 1294 -91 989 -36 
Q 684 19 347 128 
L 347 722 
Q 666 556 975 473 
Q 1284 391 1588 391 
Q 1994 391 2212 530 
Q 2431 669 2431 922 
Q 2431 1156 2273 1281 
Q 2116 1406 1581 1522 
L 1381 1569 
Q 847 1681 609 1914 
Q 372 2147 372 2553 
Q 372 3047 722 3315 
Q 1072 3584 1716 3584 
Q 2034 3584 2315 3537 
Q 2597 3491 2834 3397 
z
" transform="scale(0.015625)"/>
     </defs>
     <use xlink:href="#DejaVuSans-70"/>
     <use xlink:href="#DejaVuSans-61" x="63.476562"/>
     <use xlink:href="#DejaVuSans-72" x="124.755859"/>
     <use xlink:href="#DejaVuSans-61" x="165.869141"/>
     <use xlink:href="#DejaVuSans-6c" x="227.148438"/>
     <use xlink:href="#DejaVuSans-6c" x="254.931641"/>
     <use xlink:href="#DejaVuSans-65" x="282.714844"/>
     <use xlink:href="#DejaVuSans-6c" x="344.238281"/>
     <use xlink:href="#DejaVuSans-2d" x="372.021484"/>
     <use xlink:href="#DejaVuSans-47" x="411.730469"/>
     <use xlink:href="#DejaVuSans-34" x="489.220703"/>
     <use xlink:href="#DejaVuSans-20" x="552.84375"/>
     <use xlink:href="#DejaVuSans-6d" x="584.630859"/>
     <use xlink:href="#DejaVuSans-61" x="682.042969"/>
     <use xlink:href="#DejaVuSans-74" x="743.322266"/>
     <use xlink:href="#DejaVuSans-63" x="782.53125"/>
     <use xlink:href="#DejaVuSans-68" x="837.511719"/>
     <use xlink:href="#DejaVuSans-65" x="900.890625"/>
     <use xlink:href="#DejaVuSans-73" x="962.414062"/>
     <use xlink:href="#DejaVuSans-20" x="1014.513672"/>
    </g>
    <!-- in RNA-containing PDB entries -->
    <g transform="translate(120.349844 45.6)scale(0.18 -0.18)">
     <defs>
      <path id="DejaVuSans-69" d="M 603 3500 
L 1178 3500 
L 1178 0 
L 603 0 
L 603 3500 
z
M 603 4863 
L 1178 4863 
L 1178 4134 
L 603 4134 
L 603 4863 
z
" transform="scale(0.015625)"/>
      <path id="DejaVuSans-6e" d="M 3513 2113 
L 3513 0 
L 2938 0 
L 2938 2094 
Q 2938 2591 2744 2837 
Q 2550 3084 2163 3084 
Q 1697 3084 1428 2787 
Q 1159 2491 1159 1978 
L 1159 0 
L 581 0 
L 581 3500 
L 1159 3500 
L 1159 2956 
Q 1366 3272 1645 3428 
Q 1925 3584 2291 3584 
Q 2894 3584 3203 3211 
Q 3513 2838 3513 2113 
z
" transform="scale(0.015625)"/>
      <path id="DejaVuSans-4e" d="M 628 4666 
L 1478 4666 
L 3547 763 
L 3547 4666 
L 4159 4666 
L 4159 0 
L 3309 0 
L 1241 3903 
L 1241 0 
L 628 0 
L 628 4666 
z
" transform="scale(0.015625)"/>
      <path id="DejaVuSans-41" d="M 2188 4044 
L 1331 1722 
L 3047 1722 
L 2188 4044 
z
M 1831 4666 
L 2547 4666 
L 4325 0 
L 3669 0 
L 3244 1197 
L 1141 1197 
L 716 0 
L 50 0 
L 1831 4666 
z
" transform="scale(0.015625)"/>
      <path id="DejaVuSans-6f" d="M 1959 3097 
Q 1497 3097 1228 2736 
Q 959 2375 959 1747 
Q 959 1119 1226 758 
Q 1494 397 1959 397 
Q 2419 397 2687 759 
Q 2956 1122 2956 1747 
Q 2956 2369 2687 2733 
Q 2419 3097 1959 3097 
z
M 1959 3584 
Q 2709 3584 3137 3096 
Q 3566 2609 3566 1747 
Q 3566 888 3137 398 
Q 2709 -91 1959 -91 
Q 1206 -91 779 398 
Q 353 888 353 1747 
Q 353 2609 779 3096 
Q 1206 3584 1959 3584 
z
" transform="scale(0.015625)"/>
      <path id="DejaVuSans-67" d="M 2906 1791 
Q 2906 2416 2648 2759 
Q 2391 3103 1925 3103 
Q 1463 3103 1205 2759 
Q 947 2416 947 1791 
Q 947 1169 1205 825 
Q 1463 481 1925 481 
Q 2391 481 2648 825 
Q 2906 1169 2906 1791 
z
M 3481 434 
Q 3481 -459 3084 -895 
Q 2688 -1331 1869 -1331 
Q 1566 -1331 1297 -1286 
Q 1028 -1241 775 -1147 
L 775 -588 
Q 1028 -725 1275 -790 
Q 1522 -856 1778 -856 
Q 2344 -856 2625 -561 
Q 2906 -266 2906 331 
L 2906 616 
Q 2728 306 2450 153 
Q 2172 0 1784 0 
Q 1141 0 747 490 
Q 353 981 353 1791 
Q 353 2603 747 3093 
Q 1141 3584 1784 3584 
Q 2172 3584 2450 3431 
Q 2728 3278 2906 2969 
L 2906 3500 
L 3481 3500 
L 3481 434 
z
" transform="scale(0.015625)"/>
      <path id="DejaVuSans-50" d="M 1259 4147 
L 1259 2394 
L 2053 2394 
Q 2494 2394 2734 2622 
Q 2975 2850 2975 3272 
Q 2975 3691 2734 3919 
Q 2494 4147 2053 4147 
L 1259 4147 
z
M 628 4666 
L 2053 4666 
Q 2838 4666 3239 4311 
Q 3641 3956 3641 3272 
Q 3641 2581 3239 2228 
Q 2838 1875 2053 1875 
L 1259 1875 
L 1259 0 
L 628 0 
L 628 4666 
z
" transform="scale(0.015625)"/>
      <path id="DejaVuSans-42" d="M 1259 2228 
L 1259 519 
L 2272 519 
Q 2781 519 3026 730 
Q 3272 941 3272 1375 
Q 3272 1813 3026 2020 
Q 2781 2228 2272 2228 
L 1259 2228 
z
M 1259 4147 
L 1259 2741 
L 2194 2741 
Q 2656 2741 2882 2914 
Q 3109 3088 3109 3444 
Q 3109 3797 2882 3972 
Q 2656 4147 2194 4147 
L 1259 4147 
z
M 628 4666 
L 2241 4666 
Q 2963 4666 3353 4366 
Q 3744 4066 3744 3513 
Q 3744 3084 3544 2831 
Q 3344 2578 2956 2516 
Q 3422 2416 3680 2098 
Q 3938 1781 3938 1306 
Q 3938 681 3513 340 
Q 3088 0 2303 0 
L 628 0 
L 628 4666 
z
" transform="scale(0.015625)"/>
     </defs>
     <use xlink:href="#DejaVuSans-69"/>
     <use xlink:href="#DejaVuSans-6e" x="27.783203"/>
     <use xlink:href="#DejaVuSans-20" x="91.162109"/>
     <use xlink:href="#DejaVuSans-52" x="122.949219"/>
     <use xlink:href="#DejaVuSans-4e" x="192.431641"/>
     <use xlink:href="#DejaVuSans-41" x="267.236328"/>
     <use xlink:href="#DejaVuSans-2d" x="333.394531"/>
     <use xlink:href="#DejaVuSans-63" x="369.478516"/>
     <use xlink:href="#DejaVuSans-6f" x="424.458984"/>
     <use xlink:href="#DejaVuSans-6e" x="485.640625"/>
     <use xlink:href="#DejaVuSans-74" x="549.019531"/>
     <use xlink:href="#DejaVuSans-61" x="588.228516"/>
     <use xlink:href="#DejaVuSans-69" x="649.507812"/>
     <use xlink:href="#DejaVuSans-6e" x="677.291016"/>
     <use xlink:href="#DejaVuSans-69" x="740.669922"/>
     <use xlink:href="#DejaVuSans-6e" x="768.453125"/>
     <use xlink:href="#DejaVuSans-67" x="831.832031"/>
     <use xlink:href="#DejaVuSans-20" x="895.308594"/>
     <use xlink:href="#DejaVuSans-50" x="927.095703"/>
     <use xlink:href="#DejaVuSans-44" x="987.398438"/>
     <use xlink:href="#DejaVuSans-42" x="1064.400391"/>
     <use xlink:href="#DejaVuSans-20" x="1133.003906"/>
     <use xlink:href="#DejaVuSans-65" x="1164.791016"/>
     <use xlink:href="#DejaVuSans-6e" x="1226.314453"/>
     <use xlink:href="#DejaVuSans-74" x="1289.693359"/>
     <use xlink:href="#DejaVuSans-72" x="1328.902344"/>
     <use xlink:href="#DejaVuSans-69" x="1370.015625"/>
     <use xlink:href="#DejaVuSans-65" x="1397.798828"/>
     <use xlink:href="#DejaVuSans-73" x="1459.322266"/>
    </g>
   </g>
  </g>
  <g id="axes_2">
   <g id="matplotlib.axis_3">
    <g id="ytick_7">
     <g id="line2d_12">
      <defs>
       <path id="mbec7e957cf" d="M 0 0 
L 3.5 0 
" style="stroke: #000000; stroke-width: 0.8"/>
      </defs>
      <g>
       <use xlink:href="#mbec7e957cf" x="437.825" y="293.598153" style="stroke: #000000; stroke-width: 0.8"/>
      </g>
     </g>
     <g id="text_14">
      <!-- 0 -->
      <g style="fill: #ff7f0e" transform="translate(444.825 298.91706)scale(0.14 -0.14)">
       <use xlink:href="#DejaVuSans-30"/>
      </g>
     </g>
    </g>
    <g id="ytick_8">
     <g id="line2d_13">
      <g>
       <use xlink:href="#mbec7e957cf" x="437.825" y="245.381745" style="stroke: #000000; stroke-width: 0.8"/>
      </g>
     </g>
     <g id="text_15">
      <!-- 100 -->
      <g style="fill: #ff7f0e" transform="translate(444.825 250.700651)scale(0.14 -0.14)">
       <use xlink:href="#DejaVuSans-31"/>
       <use xlink:href="#DejaVuSans-30" x="63.623047"/>
       <use xlink:href="#DejaVuSans-30" x="127.246094"/>
      </g>
     </g>
    </g>
    <g id="ytick_9">
     <g id="line2d_14">
      <g>
       <use xlink:href="#mbec7e957cf" x="437.825" y="197.165337" style="stroke: #000000; stroke-width: 0.8"/>
      </g>
     </g>
     <g id="text_16">
      <!-- 200 -->
      <g style="fill: #ff7f0e" transform="translate(444.825 202.484243)scale(0.14 -0.14)">
       <use xlink:href="#DejaVuSans-32"/>
       <use xlink:href="#DejaVuSans-30" x="63.623047"/>
       <use xlink:href="#DejaVuSans-30" x="127.246094"/>
      </g>
     </g>
    </g>
    <g id="ytick_10">
     <g id="line2d_15">
      <g>
       <use xlink:href="#mbec7e957cf" x="437.825" y="148.948928" style="stroke: #000000; stroke-width: 0.8"/>
      </g>
     </g>
     <g id="text_17">
      <!-- 300 -->
      <g style="fill: #ff7f0e" transform="translate(444.825 154.267835)scale(0.14 -0.14)">
       <defs>
        <path id="DejaVuSans-33" d="M 2597 2516 
Q 3050 2419 3304 2112 
Q 3559 1806 3559 1356 
Q 3559 666 3084 287 
Q 2609 -91 1734 -91 
Q 1441 -91 1130 -33 
Q 819 25 488 141 
L 488 750 
Q 750 597 1062 519 
Q 1375 441 1716 441 
Q 2309 441 2620 675 
Q 2931 909 2931 1356 
Q 2931 1769 2642 2001 
Q 2353 2234 1838 2234 
L 1294 2234 
L 1294 2753 
L 1863 2753 
Q 2328 2753 2575 2939 
Q 2822 3125 2822 3475 
Q 2822 3834 2567 4026 
Q 2313 4219 1838 4219 
Q 1578 4219 1281 4162 
Q 984 4106 628 3988 
L 628 4550 
Q 988 4650 1302 4700 
Q 1616 4750 1894 4750 
Q 2613 4750 3031 4423 
Q 3450 4097 3450 3541 
Q 3450 3153 3228 2886 
Q 3006 2619 2597 2516 
z
" transform="scale(0.015625)"/>
       </defs>
       <use xlink:href="#DejaVuSans-33"/>
       <use xlink:href="#DejaVuSans-30" x="63.623047"/>
       <use xlink:href="#DejaVuSans-30" x="127.246094"/>
      </g>
     </g>
    </g>
    <g id="ytick_11">
     <g id="line2d_16">
      <g>
       <use xlink:href="#mbec7e957cf" x="437.825" y="100.73252" style="stroke: #000000; stroke-width: 0.8"/>
      </g>
     </g>
     <g id="text_18">
      <!-- 400 -->
      <g style="fill: #ff7f0e" transform="translate(444.825 106.051426)scale(0.14 -0.14)">
       <use xlink:href="#DejaVuSans-34"/>
       <use xlink:href="#DejaVuSans-30" x="63.623047"/>
       <use xlink:href="#DejaVuSans-30" x="127.246094"/>
      </g>
     </g>
    </g>
    <g id="ytick_12">
     <g id="line2d_17">
      <g>
       <use xlink:href="#mbec7e957cf" x="437.825" y="52.516112" style="stroke: #000000; stroke-width: 0.8"/>
      </g>
     </g>
     <g id="text_19">
      <!-- 500 -->
      <g style="fill: #ff7f0e" transform="translate(444.825 57.835018)scale(0.14 -0.14)">
       <use xlink:href="#DejaVuSans-35"/>
       <use xlink:href="#DejaVuSans-30" x="63.623047"/>
       <use xlink:href="#DejaVuSans-30" x="127.246094"/>
      </g>
     </g>
    </g>
    <g id="text_20">
     <!-- not GGGG -->
     <g style="fill: #ff7f0e" transform="translate(489.224688 223.854531)rotate(-90)scale(0.18 -0.18)">
      <use xlink:href="#DejaVuSans-6e"/>
      <use xlink:href="#DejaVuSans-6f" x="63.378906"/>
      <use xlink:href="#DejaVuSans-74" x="124.560547"/>
      <use xlink:href="#DejaVuSans-20" x="163.769531"/>
      <use xlink:href="#DejaVuSans-47" x="195.556641"/>
      <use xlink:href="#DejaVuSans-47" x="273.046875"/>
      <use xlink:href="#DejaVuSans-47" x="350.537109"/>
      <use xlink:href="#DejaVuSans-47" x="428.027344"/>
     </g>
    </g>
   </g>
   <g id="line2d_18">
    <path d="M 91.420455 293.598153 
L 248.528514 293.598153 
L 249.063501 292.151661 
L 272.959619 292.151661 
L 273.137948 291.669497 
L 274.386253 291.669497 
L 275.277899 291.187333 
L 281.162764 291.187333 
L 281.341093 290.705169 
L 285.442666 290.705169 
L 286.334312 290.223005 
L 287.225958 290.223005 
L 287.760946 289.740841 
L 316.471953 289.740841 
L 317.006941 289.258677 
L 319.68188 289.258677 
L 320.038538 288.776513 
L 328.598342 288.776513 
L 328.776671 288.294348 
L 329.489988 287.812184 
L 329.846646 287.33002 
L 330.559963 287.33002 
L 331.27328 286.365692 
L 333.234902 286.365692 
L 333.413231 285.883528 
L 340.011413 285.883528 
L 340.189742 285.401364 
L 340.903059 284.437036 
L 343.577998 284.437036 
L 346.074607 283.954872 
L 347.67957 283.954872 
L 348.571216 283.472708 
L 349.106204 282.990544 
L 350.354509 282.990544 
L 350.711167 281.544051 
L 351.067826 281.544051 
L 351.246155 281.061887 
L 352.31613 280.579723 
L 352.672789 279.615395 
L 352.851118 278.168903 
L 353.564435 276.72241 
L 353.742764 276.240246 
L 354.277752 275.758082 
L 354.456081 275.275918 
L 354.81274 274.793754 
L 355.169398 272.382934 
L 355.704386 270.936441 
L 355.882715 269.972113 
L 356.239373 269.489949 
L 356.95269 267.561293 
L 357.13102 266.596965 
L 357.844337 266.114801 
L 358.200995 265.632637 
L 358.557654 264.186144 
L 358.735983 264.186144 
L 358.914312 263.221816 
L 359.270971 262.739652 
L 359.984287 261.29316 
L 361.232592 260.810996 
L 361.410921 260.328832 
L 361.589251 258.400175 
L 361.76758 257.918011 
L 363.015885 257.435847 
L 363.194214 256.471519 
L 363.907531 254.542863 
L 369.435737 253.09637 
L 369.970725 252.614206 
L 370.684042 252.132042 
L 371.397359 251.167714 
L 373.35898 250.68555 
L 374.072297 250.203386 
L 374.428956 249.239058 
L 375.320602 248.756894 
L 378.887187 246.346073 
L 379.243845 245.863909 
L 379.778833 245.381745 
L 380.135491 244.899581 
L 380.670479 243.935253 
L 381.205467 243.453089 
L 381.562125 242.006596 
L 382.275442 241.524432 
L 382.988759 240.560104 
L 383.167088 239.595776 
L 383.523747 238.631448 
L 383.880405 237.184956 
L 384.058735 236.702792 
L 384.237064 235.738463 
L 384.772052 234.774135 
L 385.307039 233.327643 
L 385.485369 231.881151 
L 385.842027 230.916823 
L 386.912002 225.613018 
L 387.090332 225.130854 
L 387.268661 224.166525 
L 387.625319 223.684361 
L 388.160307 221.273541 
L 388.338636 220.791377 
L 388.695295 216.934064 
L 389.051953 216.4519 
L 389.586941 215.005408 
L 389.9436 214.523244 
L 390.121929 213.076751 
L 390.300258 212.594587 
L 390.656916 208.737275 
L 391.013575 206.326454 
L 391.191904 204.879962 
L 391.370233 204.397798 
L 391.548563 203.43347 
L 391.905221 203.43347 
L 392.08355 202.951306 
L 392.440209 202.469142 
L 392.796867 199.576157 
L 392.975197 199.093993 
L 393.153526 197.647501 
L 393.510184 197.647501 
L 393.866843 195.23668 
L 394.40183 194.754516 
L 394.58016 194.272352 
L 394.758489 192.82586 
L 394.936818 192.343696 
L 396.541781 184.146906 
L 396.720111 184.146906 
L 396.89844 183.664742 
L 397.433428 181.736086 
L 397.790086 180.771758 
L 397.968415 180.771758 
L 398.146744 179.325266 
L 398.325074 178.843102 
L 398.503403 178.843102 
L 399.038391 176.432281 
L 399.21672 175.950117 
L 399.395049 174.985789 
L 399.930037 174.021461 
L 400.108366 174.021461 
L 401.356671 164.378179 
L 401.713329 162.931687 
L 401.891658 162.931687 
L 402.961634 157.627882 
L 403.139963 157.145718 
L 403.496622 153.770569 
L 403.674951 152.806241 
L 404.031609 149.431093 
L 404.209939 147.9846 
L 404.923256 147.020272 
L 405.101585 146.055944 
L 405.458243 142.198631 
L 405.814902 140.752139 
L 406.17156 140.752139 
L 406.528219 140.269975 
L 406.884877 137.859155 
L 407.063206 136.894826 
L 407.598194 135.448334 
L 408.133182 131.591021 
L 408.311511 130.626693 
L 408.48984 130.626693 
L 408.66817 130.144529 
L 408.846499 129.180201 
L 409.381486 127.733709 
L 409.916474 125.322888 
L 411.164779 121.94774 
L 411.343108 119.536919 
L 411.699767 118.572591 
L 412.413084 117.126099 
L 412.769742 116.161771 
L 412.948071 115.197443 
L 413.1264 115.197443 
L 413.30473 114.715279 
L 413.483059 113.75095 
L 413.661388 113.75095 
L 415.444681 104.589833 
L 415.62301 104.589833 
L 416.336327 101.214684 
L 417.227973 89.160582 
L 417.406302 89.160582 
L 417.762961 86.749762 
L 418.297948 82.892449 
L 418.654607 81.445957 
L 418.832936 80.963793 
L 420.081241 71.320511 
L 420.25957 70.356183 
L 420.616229 67.463198 
L 420.794558 66.49887 
L 421.151216 63.605886 
L 421.329545 63.123722 
L 421.329545 63.123722 
" clip-path="url(#p449cca1ac1)" style="fill: none; stroke: #ff7f0e; stroke-width: 1.5; stroke-linecap: square"/>
   </g>
   <g id="patch_7">
    <path d="M 74.925 305.121875 
L 74.925 51.6 
" style="fill: none; stroke: #000000; stroke-width: 0.8; stroke-linejoin: miter; stroke-linecap: square"/>
   </g>
   <g id="patch_8">
    <path d="M 437.825 305.121875 
L 437.825 51.6 
" style="fill: none; stroke: #000000; stroke-width: 0.8; stroke-linejoin: miter; stroke-linecap: square"/>
   </g>
   <g id="patch_9">
    <path d="M 74.925 305.121875 
L 437.825 305.121875 
" style="fill: none; stroke: #000000; stroke-width: 0.8; stroke-linejoin: miter; stroke-linecap: square"/>
   </g>
   <g id="patch_10">
    <path d="M 74.925 51.6 
L 437.825 51.6 
" style="fill: none; stroke: #000000; stroke-width: 0.8; stroke-linejoin: miter; stroke-linecap: square"/>
   </g>
  </g>
 </g>
 <defs>
  <clipPath id="p449cca1ac1">
   <rect x="74.925" y="51.6" width="362.9" height="253.521875"/>
  </clipPath>
 </defs>
</svg>
